<?xml version="1.0" encoding="utf-8" standalone="no"?>
<!DOCTYPE svg PUBLIC "-//W3C//DTD SVG 1.1//EN"
  "http://www.w3.org/Graphics/SVG/1.1/DTD/svg11.dtd">
<svg xmlns:xlink="http://www.w3.org/1999/xlink" width="1122.365756pt" height="712.876875pt" viewBox="0 0 1122.365756 712.876875" xmlns="http://www.w3.org/2000/svg" version="1.1">
 <metadata>
  <rdf:RDF xmlns:dc="http://purl.org/dc/elements/1.1/" xmlns:cc="http://creativecommons.org/ns#" xmlns:rdf="http://www.w3.org/1999/02/22-rdf-syntax-ns#">
   <cc:Work>
    <dc:type rdf:resource="http://purl.org/dc/dcmitype/StillImage"/>
    <dc:date>2025-08-03T09:47:22.344964</dc:date>
    <dc:format>image/svg+xml</dc:format>
    <dc:creator>
     <cc:Agent>
      <dc:title>Matplotlib v3.10.3, https://matplotlib.org/</dc:title>
     </cc:Agent>
    </dc:creator>
   </cc:Work>
  </rdf:RDF>
 </metadata>
 <defs>
  <style type="text/css">*{stroke-linejoin: round; stroke-linecap: butt}</style>
 </defs>
 <g id="figure_1">
  <g id="patch_1">
   <path d="M 0 712.876875 
L 1122.365756 712.876875 
L 1122.365756 0 
L 0 0 
z
" style="fill: #ffffff"/>
  </g>
  <g id="axes_1">
   <g id="patch_2">
    <path d="M 7.2 705.676875 
L 1090.040294 705.676875 
L 1090.040294 42.396875 
L 7.2 42.396875 
z
" style="fill: #ffffff"/>
   </g>
   <g id="patch_3">
    <path d="M 1109.14924 374.036875 
L 1090.040294 383.986075 
L 1090.040294 374.070039 
L 7.2 374.070039 
L 7.2 374.003711 
L 1090.040294 374.003711 
L 1090.040294 364.087675 
z
" clip-path="url(#pd05f11936e)" style="stroke: #000000; stroke-width: 2; stroke-linejoin: miter"/>
   </g>
   <g id="patch_4">
    <path d="M 70.896488 423.782875 
L 580.468391 423.782875 
L 580.468391 324.290875 
L 70.896488 324.290875 
z
" clip-path="url(#pd05f11936e)" style="fill: #ff6b6b; opacity: 0.8; stroke: #000000; stroke-width: 2; stroke-linejoin: miter"/>
   </g>
   <g id="patch_5">
    <path d="M 580.468391 423.782875 
L 707.861367 423.782875 
L 707.861367 324.290875 
L 580.468391 324.290875 
z
" clip-path="url(#pd05f11936e)" style="fill: #4ecdc4; opacity: 0.8; stroke: #000000; stroke-width: 2; stroke-linejoin: miter"/>
   </g>
   <g id="patch_6">
    <path d="M 707.861367 423.782875 
L 758.818557 423.782875 
L 758.818557 324.290875 
L 707.861367 324.290875 
z
" clip-path="url(#pd05f11936e)" style="fill: #45b7d1; opacity: 0.8; stroke: #000000; stroke-width: 2; stroke-linejoin: miter"/>
   </g>
   <g id="patch_7">
    <path d="M 771.557855 423.782875 
L 898.95083 423.782875 
L 898.95083 324.290875 
L 771.557855 324.290875 
z
" clip-path="url(#pd05f11936e)" style="fill: #96ceb4; opacity: 0.8; stroke: #000000; stroke-width: 2; stroke-linejoin: miter"/>
   </g>
   <g id="patch_8">
    <path d="M 898.95083 423.782875 
L 1026.343806 423.782875 
L 1026.343806 324.290875 
L 898.95083 324.290875 
z
" clip-path="url(#pd05f11936e)" style="fill: #ffeaa7; opacity: 0.8; stroke: #000000; stroke-width: 2; stroke-linejoin: miter"/>
   </g>
   <g id="patch_9">
    <path d="M 898.95083 437.048475 
L 1026.343806 437.048475 
L 1026.343806 311.025275 
L 898.95083 311.025275 
L 898.95083 437.048475 
z
" clip-path="url(#pd05f11936e)" style="fill: none; stroke-dasharray: 11.1,4.8; stroke-dashoffset: 0; stroke: #ff0000; stroke-width: 3; stroke-linejoin: miter"/>
   </g>
   <g id="matplotlib.axis_1"/>
   <g id="matplotlib.axis_2"/>
   <g id="line2d_1">
    <path d="M 70.896488 705.676875 
L 70.896488 42.396875 
" clip-path="url(#pd05f11936e)" style="fill: none; stroke-dasharray: 5.55,2.4; stroke-dashoffset: 0; stroke: #808080; stroke-opacity: 0.5; stroke-width: 1.5"/>
   </g>
   <g id="line2d_2">
    <path d="M 198.289464 705.676875 
L 198.289464 42.396875 
" clip-path="url(#pd05f11936e)" style="fill: none; stroke-dasharray: 5.55,2.4; stroke-dashoffset: 0; stroke: #808080; stroke-opacity: 0.5; stroke-width: 1.5"/>
   </g>
   <g id="line2d_3">
    <path d="M 325.682439 705.676875 
L 325.682439 42.396875 
" clip-path="url(#pd05f11936e)" style="fill: none; stroke-dasharray: 5.55,2.4; stroke-dashoffset: 0; stroke: #808080; stroke-opacity: 0.5; stroke-width: 1.5"/>
   </g>
   <g id="line2d_4">
    <path d="M 453.075415 705.676875 
L 453.075415 42.396875 
" clip-path="url(#pd05f11936e)" style="fill: none; stroke-dasharray: 5.55,2.4; stroke-dashoffset: 0; stroke: #808080; stroke-opacity: 0.5; stroke-width: 1.5"/>
   </g>
   <g id="line2d_5">
    <path d="M 580.468391 705.676875 
L 580.468391 42.396875 
" clip-path="url(#pd05f11936e)" style="fill: none; stroke-dasharray: 5.55,2.4; stroke-dashoffset: 0; stroke: #808080; stroke-opacity: 0.5; stroke-width: 1.5"/>
   </g>
   <g id="line2d_6">
    <path d="M 707.861367 705.676875 
L 707.861367 42.396875 
" clip-path="url(#pd05f11936e)" style="fill: none; stroke-dasharray: 5.55,2.4; stroke-dashoffset: 0; stroke: #808080; stroke-opacity: 0.5; stroke-width: 1.5"/>
   </g>
   <g id="line2d_7">
    <path d="M 835.254343 705.676875 
L 835.254343 42.396875 
" clip-path="url(#pd05f11936e)" style="fill: none; stroke-dasharray: 5.55,2.4; stroke-dashoffset: 0; stroke: #808080; stroke-opacity: 0.5; stroke-width: 1.5"/>
   </g>
   <g id="line2d_8">
    <path d="M 962.647318 705.676875 
L 962.647318 42.396875 
" clip-path="url(#pd05f11936e)" style="fill: none; stroke-dasharray: 5.55,2.4; stroke-dashoffset: 0; stroke: #808080; stroke-opacity: 0.5; stroke-width: 1.5"/>
   </g>
   <g id="line2d_9">
    <path d="M 1090.040294 705.676875 
L 1090.040294 42.396875 
" clip-path="url(#pd05f11936e)" style="fill: none; stroke-dasharray: 5.55,2.4; stroke-dashoffset: 0; stroke: #808080; stroke-opacity: 0.5; stroke-width: 1.5"/>
   </g>
   <g id="text_1">
    <!-- Pre-2018 -->
    <g transform="translate(300.169939 376.79625) scale(0.1 -0.1)">
     <defs>
      <path id="DejaVuSans-Bold-50" d="M 588 4666 
L 2584 4666 
Q 3475 4666 3951 4270 
Q 4428 3875 4428 3144 
Q 4428 2409 3951 2014 
Q 3475 1619 2584 1619 
L 1791 1619 
L 1791 0 
L 588 0 
L 588 4666 
z
M 1791 3794 
L 1791 2491 
L 2456 2491 
Q 2806 2491 2997 2661 
Q 3188 2831 3188 3144 
Q 3188 3456 2997 3625 
Q 2806 3794 2456 3794 
L 1791 3794 
z
" transform="scale(0.015625)"/>
      <path id="DejaVuSans-Bold-72" d="M 3138 2547 
Q 2991 2616 2845 2648 
Q 2700 2681 2553 2681 
Q 2122 2681 1889 2404 
Q 1656 2128 1656 1613 
L 1656 0 
L 538 0 
L 538 3500 
L 1656 3500 
L 1656 2925 
Q 1872 3269 2151 3426 
Q 2431 3584 2822 3584 
Q 2878 3584 2943 3579 
Q 3009 3575 3134 3559 
L 3138 2547 
z
" transform="scale(0.015625)"/>
      <path id="DejaVuSans-Bold-65" d="M 4031 1759 
L 4031 1441 
L 1416 1441 
Q 1456 1047 1700 850 
Q 1944 653 2381 653 
Q 2734 653 3104 758 
Q 3475 863 3866 1075 
L 3866 213 
Q 3469 63 3072 -14 
Q 2675 -91 2278 -91 
Q 1328 -91 801 392 
Q 275 875 275 1747 
Q 275 2603 792 3093 
Q 1309 3584 2216 3584 
Q 3041 3584 3536 3087 
Q 4031 2591 4031 1759 
z
M 2881 2131 
Q 2881 2450 2695 2645 
Q 2509 2841 2209 2841 
Q 1884 2841 1681 2658 
Q 1478 2475 1428 2131 
L 2881 2131 
z
" transform="scale(0.015625)"/>
      <path id="DejaVuSans-Bold-2d" d="M 347 2297 
L 2309 2297 
L 2309 1388 
L 347 1388 
L 347 2297 
z
" transform="scale(0.015625)"/>
      <path id="DejaVuSans-Bold-32" d="M 1844 884 
L 3897 884 
L 3897 0 
L 506 0 
L 506 884 
L 2209 2388 
Q 2438 2594 2547 2791 
Q 2656 2988 2656 3200 
Q 2656 3528 2436 3728 
Q 2216 3928 1850 3928 
Q 1569 3928 1234 3808 
Q 900 3688 519 3450 
L 519 4475 
Q 925 4609 1322 4679 
Q 1719 4750 2100 4750 
Q 2938 4750 3402 4381 
Q 3866 4013 3866 3353 
Q 3866 2972 3669 2642 
Q 3472 2313 2841 1759 
L 1844 884 
z
" transform="scale(0.015625)"/>
      <path id="DejaVuSans-Bold-30" d="M 2944 2338 
Q 2944 3213 2780 3570 
Q 2616 3928 2228 3928 
Q 1841 3928 1675 3570 
Q 1509 3213 1509 2338 
Q 1509 1453 1675 1090 
Q 1841 728 2228 728 
Q 2613 728 2778 1090 
Q 2944 1453 2944 2338 
z
M 4147 2328 
Q 4147 1169 3647 539 
Q 3147 -91 2228 -91 
Q 1306 -91 806 539 
Q 306 1169 306 2328 
Q 306 3491 806 4120 
Q 1306 4750 2228 4750 
Q 3147 4750 3647 4120 
Q 4147 3491 4147 2328 
z
" transform="scale(0.015625)"/>
      <path id="DejaVuSans-Bold-31" d="M 750 831 
L 1813 831 
L 1813 3847 
L 722 3622 
L 722 4441 
L 1806 4666 
L 2950 4666 
L 2950 831 
L 4013 831 
L 4013 0 
L 750 0 
L 750 831 
z
" transform="scale(0.015625)"/>
      <path id="DejaVuSans-Bold-38" d="M 2228 2088 
Q 1891 2088 1709 1903 
Q 1528 1719 1528 1375 
Q 1528 1031 1709 848 
Q 1891 666 2228 666 
Q 2563 666 2741 848 
Q 2919 1031 2919 1375 
Q 2919 1722 2741 1905 
Q 2563 2088 2228 2088 
z
M 1350 2484 
Q 925 2613 709 2878 
Q 494 3144 494 3541 
Q 494 4131 934 4440 
Q 1375 4750 2228 4750 
Q 3075 4750 3515 4442 
Q 3956 4134 3956 3541 
Q 3956 3144 3739 2878 
Q 3522 2613 3097 2484 
Q 3572 2353 3814 2058 
Q 4056 1763 4056 1313 
Q 4056 619 3595 264 
Q 3134 -91 2228 -91 
Q 1319 -91 855 264 
Q 391 619 391 1313 
Q 391 1763 633 2058 
Q 875 2353 1350 2484 
z
M 1631 3419 
Q 1631 3141 1786 2991 
Q 1941 2841 2228 2841 
Q 2509 2841 2662 2991 
Q 2816 3141 2816 3419 
Q 2816 3697 2662 3845 
Q 2509 3994 2228 3994 
Q 1941 3994 1786 3844 
Q 1631 3694 1631 3419 
z
" transform="scale(0.015625)"/>
     </defs>
     <use xlink:href="#DejaVuSans-Bold-50"/>
     <use xlink:href="#DejaVuSans-Bold-72" transform="translate(73.291016 0)"/>
     <use xlink:href="#DejaVuSans-Bold-65" transform="translate(122.607422 0)"/>
     <use xlink:href="#DejaVuSans-Bold-2d" transform="translate(190.429688 0)"/>
     <use xlink:href="#DejaVuSans-Bold-32" transform="translate(231.933594 0)"/>
     <use xlink:href="#DejaVuSans-Bold-30" transform="translate(301.513672 0)"/>
     <use xlink:href="#DejaVuSans-Bold-31" transform="translate(371.09375 0)"/>
     <use xlink:href="#DejaVuSans-Bold-38" transform="translate(440.673828 0)"/>
    </g>
   </g>
   <g id="text_2">
    <!-- OCR + Rule-based parsing -->
    <g transform="translate(244.372674 239.007281) scale(0.11 -0.11)">
     <defs>
      <path id="DejaVuSans-Bold-4f" d="M 2719 3878 
Q 2169 3878 1866 3472 
Q 1563 3066 1563 2328 
Q 1563 1594 1866 1187 
Q 2169 781 2719 781 
Q 3272 781 3575 1187 
Q 3878 1594 3878 2328 
Q 3878 3066 3575 3472 
Q 3272 3878 2719 3878 
z
M 2719 4750 
Q 3844 4750 4481 4106 
Q 5119 3463 5119 2328 
Q 5119 1197 4481 553 
Q 3844 -91 2719 -91 
Q 1597 -91 958 553 
Q 319 1197 319 2328 
Q 319 3463 958 4106 
Q 1597 4750 2719 4750 
z
" transform="scale(0.015625)"/>
      <path id="DejaVuSans-Bold-43" d="M 4288 256 
Q 3956 84 3597 -3 
Q 3238 -91 2847 -91 
Q 1681 -91 1000 561 
Q 319 1213 319 2328 
Q 319 3447 1000 4098 
Q 1681 4750 2847 4750 
Q 3238 4750 3597 4662 
Q 3956 4575 4288 4403 
L 4288 3438 
Q 3953 3666 3628 3772 
Q 3303 3878 2944 3878 
Q 2300 3878 1931 3465 
Q 1563 3053 1563 2328 
Q 1563 1606 1931 1193 
Q 2300 781 2944 781 
Q 3303 781 3628 887 
Q 3953 994 4288 1222 
L 4288 256 
z
" transform="scale(0.015625)"/>
      <path id="DejaVuSans-Bold-52" d="M 2297 2597 
Q 2675 2597 2839 2737 
Q 3003 2878 3003 3200 
Q 3003 3519 2839 3656 
Q 2675 3794 2297 3794 
L 1791 3794 
L 1791 2597 
L 2297 2597 
z
M 1791 1766 
L 1791 0 
L 588 0 
L 588 4666 
L 2425 4666 
Q 3347 4666 3776 4356 
Q 4206 4047 4206 3378 
Q 4206 2916 3982 2619 
Q 3759 2322 3309 2181 
Q 3556 2125 3751 1926 
Q 3947 1728 4147 1325 
L 4800 0 
L 3519 0 
L 2950 1159 
Q 2778 1509 2601 1637 
Q 2425 1766 2131 1766 
L 1791 1766 
z
" transform="scale(0.015625)"/>
      <path id="DejaVuSans-Bold-20" transform="scale(0.015625)"/>
      <path id="DejaVuSans-Bold-2b" d="M 3053 4013 
L 3053 2375 
L 4684 2375 
L 4684 1638 
L 3053 1638 
L 3053 0 
L 2309 0 
L 2309 1638 
L 678 1638 
L 678 2375 
L 2309 2375 
L 2309 4013 
L 3053 4013 
z
" transform="scale(0.015625)"/>
      <path id="DejaVuSans-Bold-75" d="M 500 1363 
L 500 3500 
L 1625 3500 
L 1625 3150 
Q 1625 2866 1622 2436 
Q 1619 2006 1619 1863 
Q 1619 1441 1641 1255 
Q 1663 1069 1716 984 
Q 1784 875 1895 815 
Q 2006 756 2150 756 
Q 2500 756 2700 1025 
Q 2900 1294 2900 1772 
L 2900 3500 
L 4019 3500 
L 4019 0 
L 2900 0 
L 2900 506 
Q 2647 200 2364 54 
Q 2081 -91 1741 -91 
Q 1134 -91 817 281 
Q 500 653 500 1363 
z
" transform="scale(0.015625)"/>
      <path id="DejaVuSans-Bold-6c" d="M 538 4863 
L 1656 4863 
L 1656 0 
L 538 0 
L 538 4863 
z
" transform="scale(0.015625)"/>
      <path id="DejaVuSans-Bold-62" d="M 2400 722 
Q 2759 722 2948 984 
Q 3138 1247 3138 1747 
Q 3138 2247 2948 2509 
Q 2759 2772 2400 2772 
Q 2041 2772 1848 2508 
Q 1656 2244 1656 1747 
Q 1656 1250 1848 986 
Q 2041 722 2400 722 
z
M 1656 2988 
Q 1888 3294 2169 3439 
Q 2450 3584 2816 3584 
Q 3463 3584 3878 3070 
Q 4294 2556 4294 1747 
Q 4294 938 3878 423 
Q 3463 -91 2816 -91 
Q 2450 -91 2169 54 
Q 1888 200 1656 506 
L 1656 0 
L 538 0 
L 538 4863 
L 1656 4863 
L 1656 2988 
z
" transform="scale(0.015625)"/>
      <path id="DejaVuSans-Bold-61" d="M 2106 1575 
Q 1756 1575 1579 1456 
Q 1403 1338 1403 1106 
Q 1403 894 1545 773 
Q 1688 653 1941 653 
Q 2256 653 2472 879 
Q 2688 1106 2688 1447 
L 2688 1575 
L 2106 1575 
z
M 3816 1997 
L 3816 0 
L 2688 0 
L 2688 519 
Q 2463 200 2181 54 
Q 1900 -91 1497 -91 
Q 953 -91 614 226 
Q 275 544 275 1050 
Q 275 1666 698 1953 
Q 1122 2241 2028 2241 
L 2688 2241 
L 2688 2328 
Q 2688 2594 2478 2717 
Q 2269 2841 1825 2841 
Q 1466 2841 1156 2769 
Q 847 2697 581 2553 
L 581 3406 
Q 941 3494 1303 3539 
Q 1666 3584 2028 3584 
Q 2975 3584 3395 3211 
Q 3816 2838 3816 1997 
z
" transform="scale(0.015625)"/>
      <path id="DejaVuSans-Bold-73" d="M 3272 3391 
L 3272 2541 
Q 2913 2691 2578 2766 
Q 2244 2841 1947 2841 
Q 1628 2841 1473 2761 
Q 1319 2681 1319 2516 
Q 1319 2381 1436 2309 
Q 1553 2238 1856 2203 
L 2053 2175 
Q 2913 2066 3209 1816 
Q 3506 1566 3506 1031 
Q 3506 472 3093 190 
Q 2681 -91 1863 -91 
Q 1516 -91 1145 -36 
Q 775 19 384 128 
L 384 978 
Q 719 816 1070 734 
Q 1422 653 1784 653 
Q 2113 653 2278 743 
Q 2444 834 2444 1013 
Q 2444 1163 2330 1236 
Q 2216 1309 1875 1350 
L 1678 1375 
Q 931 1469 631 1722 
Q 331 1975 331 2491 
Q 331 3047 712 3315 
Q 1094 3584 1881 3584 
Q 2191 3584 2531 3537 
Q 2872 3491 3272 3391 
z
" transform="scale(0.015625)"/>
      <path id="DejaVuSans-Bold-64" d="M 2919 2988 
L 2919 4863 
L 4044 4863 
L 4044 0 
L 2919 0 
L 2919 506 
Q 2688 197 2409 53 
Q 2131 -91 1766 -91 
Q 1119 -91 703 423 
Q 288 938 288 1747 
Q 288 2556 703 3070 
Q 1119 3584 1766 3584 
Q 2128 3584 2408 3439 
Q 2688 3294 2919 2988 
z
M 2181 722 
Q 2541 722 2730 984 
Q 2919 1247 2919 1747 
Q 2919 2247 2730 2509 
Q 2541 2772 2181 2772 
Q 1825 2772 1636 2509 
Q 1447 2247 1447 1747 
Q 1447 1247 1636 984 
Q 1825 722 2181 722 
z
" transform="scale(0.015625)"/>
      <path id="DejaVuSans-Bold-70" d="M 1656 506 
L 1656 -1331 
L 538 -1331 
L 538 3500 
L 1656 3500 
L 1656 2988 
Q 1888 3294 2169 3439 
Q 2450 3584 2816 3584 
Q 3463 3584 3878 3070 
Q 4294 2556 4294 1747 
Q 4294 938 3878 423 
Q 3463 -91 2816 -91 
Q 2450 -91 2169 54 
Q 1888 200 1656 506 
z
M 2400 2772 
Q 2041 2772 1848 2508 
Q 1656 2244 1656 1747 
Q 1656 1250 1848 986 
Q 2041 722 2400 722 
Q 2759 722 2948 984 
Q 3138 1247 3138 1747 
Q 3138 2247 2948 2509 
Q 2759 2772 2400 2772 
z
" transform="scale(0.015625)"/>
      <path id="DejaVuSans-Bold-69" d="M 538 3500 
L 1656 3500 
L 1656 0 
L 538 0 
L 538 3500 
z
M 538 4863 
L 1656 4863 
L 1656 3950 
L 538 3950 
L 538 4863 
z
" transform="scale(0.015625)"/>
      <path id="DejaVuSans-Bold-6e" d="M 4056 2131 
L 4056 0 
L 2931 0 
L 2931 347 
L 2931 1631 
Q 2931 2084 2911 2256 
Q 2891 2428 2841 2509 
Q 2775 2619 2662 2680 
Q 2550 2741 2406 2741 
Q 2056 2741 1856 2470 
Q 1656 2200 1656 1722 
L 1656 0 
L 538 0 
L 538 3500 
L 1656 3500 
L 1656 2988 
Q 1909 3294 2193 3439 
Q 2478 3584 2822 3584 
Q 3428 3584 3742 3212 
Q 4056 2841 4056 2131 
z
" transform="scale(0.015625)"/>
      <path id="DejaVuSans-Bold-67" d="M 2919 594 
Q 2688 288 2409 144 
Q 2131 0 1766 0 
Q 1125 0 706 504 
Q 288 1009 288 1791 
Q 288 2575 706 3076 
Q 1125 3578 1766 3578 
Q 2131 3578 2409 3434 
Q 2688 3291 2919 2981 
L 2919 3500 
L 4044 3500 
L 4044 353 
Q 4044 -491 3511 -936 
Q 2978 -1381 1966 -1381 
Q 1638 -1381 1331 -1331 
Q 1025 -1281 716 -1178 
L 716 -306 
Q 1009 -475 1290 -558 
Q 1572 -641 1856 -641 
Q 2406 -641 2662 -400 
Q 2919 -159 2919 353 
L 2919 594 
z
M 2181 2772 
Q 1834 2772 1640 2515 
Q 1447 2259 1447 1791 
Q 1447 1309 1634 1061 
Q 1822 813 2181 813 
Q 2531 813 2725 1069 
Q 2919 1325 2919 1791 
Q 2919 2259 2725 2515 
Q 2531 2772 2181 2772 
z
" transform="scale(0.015625)"/>
     </defs>
     <use xlink:href="#DejaVuSans-Bold-4f"/>
     <use xlink:href="#DejaVuSans-Bold-43" transform="translate(85.009766 0)"/>
     <use xlink:href="#DejaVuSans-Bold-52" transform="translate(158.398438 0)"/>
     <use xlink:href="#DejaVuSans-Bold-20" transform="translate(235.400391 0)"/>
     <use xlink:href="#DejaVuSans-Bold-2b" transform="translate(270.214844 0)"/>
     <use xlink:href="#DejaVuSans-Bold-20" transform="translate(354.003906 0)"/>
     <use xlink:href="#DejaVuSans-Bold-52" transform="translate(388.818359 0)"/>
     <use xlink:href="#DejaVuSans-Bold-75" transform="translate(465.820312 0)"/>
     <use xlink:href="#DejaVuSans-Bold-6c" transform="translate(537.011719 0)"/>
     <use xlink:href="#DejaVuSans-Bold-65" transform="translate(571.289062 0)"/>
     <use xlink:href="#DejaVuSans-Bold-2d" transform="translate(639.111328 0)"/>
     <use xlink:href="#DejaVuSans-Bold-62" transform="translate(680.615234 0)"/>
     <use xlink:href="#DejaVuSans-Bold-61" transform="translate(752.197266 0)"/>
     <use xlink:href="#DejaVuSans-Bold-73" transform="translate(819.677734 0)"/>
     <use xlink:href="#DejaVuSans-Bold-65" transform="translate(879.199219 0)"/>
     <use xlink:href="#DejaVuSans-Bold-64" transform="translate(947.021484 0)"/>
     <use xlink:href="#DejaVuSans-Bold-20" transform="translate(1018.603516 0)"/>
     <use xlink:href="#DejaVuSans-Bold-70" transform="translate(1053.417969 0)"/>
     <use xlink:href="#DejaVuSans-Bold-61" transform="translate(1125 0)"/>
     <use xlink:href="#DejaVuSans-Bold-72" transform="translate(1192.480469 0)"/>
     <use xlink:href="#DejaVuSans-Bold-73" transform="translate(1241.796875 0)"/>
     <use xlink:href="#DejaVuSans-Bold-69" transform="translate(1301.318359 0)"/>
     <use xlink:href="#DejaVuSans-Bold-6e" transform="translate(1335.595703 0)"/>
     <use xlink:href="#DejaVuSans-Bold-67" transform="translate(1406.787109 0)"/>
    </g>
   </g>
   <g id="text_3">
    <!-- Traditional OCR with -->
    <g transform="translate(279.722674 513.531469) scale(0.09 -0.09)">
     <defs>
      <path id="DejaVuSans-Oblique-54" d="M 378 4666 
L 4325 4666 
L 4225 4134 
L 2559 4134 
L 1759 0 
L 1125 0 
L 1925 4134 
L 275 4134 
L 378 4666 
z
" transform="scale(0.015625)"/>
      <path id="DejaVuSans-Oblique-72" d="M 2853 2969 
Q 2766 3016 2653 3041 
Q 2541 3066 2413 3066 
Q 1953 3066 1609 2717 
Q 1266 2369 1153 1784 
L 800 0 
L 225 0 
L 909 3500 
L 1484 3500 
L 1375 2956 
Q 1603 3259 1920 3421 
Q 2238 3584 2597 3584 
Q 2691 3584 2781 3573 
Q 2872 3563 2963 3538 
L 2853 2969 
z
" transform="scale(0.015625)"/>
      <path id="DejaVuSans-Oblique-61" d="M 3438 1997 
L 3047 0 
L 2472 0 
L 2578 531 
Q 2325 219 2001 64 
Q 1678 -91 1281 -91 
Q 834 -91 548 182 
Q 263 456 263 884 
Q 263 1497 752 1853 
Q 1241 2209 2100 2209 
L 2900 2209 
L 2931 2363 
Q 2938 2388 2941 2417 
Q 2944 2447 2944 2509 
Q 2944 2788 2717 2942 
Q 2491 3097 2081 3097 
Q 1800 3097 1504 3025 
Q 1209 2953 897 2809 
L 997 3341 
Q 1322 3463 1633 3523 
Q 1944 3584 2234 3584 
Q 2853 3584 3176 3315 
Q 3500 3047 3500 2534 
Q 3500 2431 3484 2292 
Q 3469 2153 3438 1997 
z
M 2816 1759 
L 2241 1759 
Q 1534 1759 1195 1570 
Q 856 1381 856 984 
Q 856 709 1029 553 
Q 1203 397 1509 397 
Q 1978 397 2328 733 
Q 2678 1069 2791 1631 
L 2816 1759 
z
" transform="scale(0.015625)"/>
      <path id="DejaVuSans-Oblique-64" d="M 2675 525 
Q 2444 222 2128 65 
Q 1813 -91 1428 -91 
Q 903 -91 598 267 
Q 294 625 294 1247 
Q 294 1766 478 2236 
Q 663 2706 1013 3078 
Q 1244 3325 1534 3454 
Q 1825 3584 2144 3584 
Q 2481 3584 2739 3421 
Q 2997 3259 3138 2956 
L 3513 4863 
L 4091 4863 
L 3144 0 
L 2566 0 
L 2675 525 
z
M 891 1350 
Q 891 897 1095 644 
Q 1300 391 1663 391 
Q 1931 391 2161 520 
Q 2391 650 2566 903 
Q 2750 1166 2856 1509 
Q 2963 1853 2963 2188 
Q 2963 2622 2758 2865 
Q 2553 3109 2194 3109 
Q 1922 3109 1687 2981 
Q 1453 2853 1288 2613 
Q 1106 2353 998 2009 
Q 891 1666 891 1350 
z
" transform="scale(0.015625)"/>
      <path id="DejaVuSans-Oblique-69" d="M 1172 4863 
L 1747 4863 
L 1606 4134 
L 1031 4134 
L 1172 4863 
z
M 909 3500 
L 1484 3500 
L 800 0 
L 225 0 
L 909 3500 
z
" transform="scale(0.015625)"/>
      <path id="DejaVuSans-Oblique-74" d="M 2706 3500 
L 2619 3053 
L 1472 3053 
L 1100 1153 
Q 1081 1047 1072 975 
Q 1063 903 1063 863 
Q 1063 663 1183 572 
Q 1303 481 1569 481 
L 2150 481 
L 2053 0 
L 1503 0 
Q 991 0 739 200 
Q 488 400 488 806 
Q 488 878 497 964 
Q 506 1050 525 1153 
L 897 3053 
L 409 3053 
L 500 3500 
L 978 3500 
L 1172 4494 
L 1747 4494 
L 1556 3500 
L 2706 3500 
z
" transform="scale(0.015625)"/>
      <path id="DejaVuSans-Oblique-6f" d="M 1625 -91 
Q 1009 -91 651 289 
Q 294 669 294 1325 
Q 294 1706 417 2101 
Q 541 2497 738 2766 
Q 1047 3184 1428 3384 
Q 1809 3584 2291 3584 
Q 2888 3584 3255 3212 
Q 3622 2841 3622 2241 
Q 3622 1825 3500 1412 
Q 3378 1000 3181 728 
Q 2875 309 2494 109 
Q 2113 -91 1625 -91 
z
M 891 1344 
Q 891 869 1089 633 
Q 1288 397 1691 397 
Q 2269 397 2648 901 
Q 3028 1406 3028 2181 
Q 3028 2634 2825 2865 
Q 2622 3097 2228 3097 
Q 1903 3097 1650 2945 
Q 1397 2794 1197 2484 
Q 1050 2253 970 1956 
Q 891 1659 891 1344 
z
" transform="scale(0.015625)"/>
      <path id="DejaVuSans-Oblique-6e" d="M 3566 2113 
L 3156 0 
L 2578 0 
L 2988 2091 
Q 3016 2238 3031 2350 
Q 3047 2463 3047 2528 
Q 3047 2791 2881 2937 
Q 2716 3084 2419 3084 
Q 1956 3084 1622 2776 
Q 1288 2469 1184 1941 
L 800 0 
L 225 0 
L 903 3500 
L 1478 3500 
L 1363 2950 
Q 1603 3253 1940 3418 
Q 2278 3584 2650 3584 
Q 3113 3584 3367 3334 
Q 3622 3084 3622 2631 
Q 3622 2519 3608 2391 
Q 3594 2263 3566 2113 
z
" transform="scale(0.015625)"/>
      <path id="DejaVuSans-Oblique-6c" d="M 1172 4863 
L 1747 4863 
L 800 0 
L 225 0 
L 1172 4863 
z
" transform="scale(0.015625)"/>
      <path id="DejaVuSans-Oblique-20" transform="scale(0.015625)"/>
      <path id="DejaVuSans-Oblique-4f" d="M 2919 4238 
Q 2400 4238 2003 3986 
Q 1606 3734 1313 3219 
Q 1125 2891 1026 2522 
Q 928 2153 928 1778 
Q 928 1128 1239 775 
Q 1550 422 2119 422 
Q 2631 422 3032 676 
Q 3434 931 3719 1434 
Q 3909 1772 4009 2142 
Q 4109 2513 4109 2881 
Q 4109 3528 3796 3883 
Q 3484 4238 2919 4238 
z
M 2100 -91 
Q 1241 -91 748 418 
Q 256 928 256 1813 
Q 256 2319 448 2847 
Q 641 3375 978 3788 
Q 1375 4272 1862 4511 
Q 2350 4750 2938 4750 
Q 3794 4750 4287 4245 
Q 4781 3741 4781 2869 
Q 4781 2331 4593 1812 
Q 4406 1294 4056 872 
Q 3656 384 3173 146 
Q 2691 -91 2100 -91 
z
" transform="scale(0.015625)"/>
      <path id="DejaVuSans-Oblique-43" d="M 4447 4306 
L 4319 3641 
Q 4019 3944 3683 4091 
Q 3347 4238 2956 4238 
Q 2422 4238 2017 3981 
Q 1613 3725 1319 3200 
Q 1131 2863 1032 2486 
Q 934 2109 934 1728 
Q 934 1091 1264 756 
Q 1594 422 2222 422 
Q 2656 422 3056 561 
Q 3456 700 3834 978 
L 3688 231 
Q 3316 72 2936 -9 
Q 2556 -91 2175 -91 
Q 1278 -91 773 396 
Q 269 884 269 1753 
Q 269 2309 461 2846 
Q 653 3384 1013 3828 
Q 1394 4300 1883 4525 
Q 2372 4750 3022 4750 
Q 3422 4750 3780 4639 
Q 4138 4528 4447 4306 
z
" transform="scale(0.015625)"/>
      <path id="DejaVuSans-Oblique-52" d="M 1613 4147 
L 1294 2491 
L 2106 2491 
Q 2584 2491 2879 2755 
Q 3175 3019 3175 3444 
Q 3175 3784 2976 3965 
Q 2778 4147 2406 4147 
L 1613 4147 
z
M 2772 2241 
Q 2972 2194 3105 2009 
Q 3238 1825 3413 1275 
L 3809 0 
L 3144 0 
L 2778 1197 
Q 2638 1659 2453 1815 
Q 2269 1972 1888 1972 
L 1191 1972 
L 806 0 
L 172 0 
L 1081 4666 
L 2503 4666 
Q 3150 4666 3495 4373 
Q 3841 4081 3841 3531 
Q 3841 3044 3547 2687 
Q 3253 2331 2772 2241 
z
" transform="scale(0.015625)"/>
      <path id="DejaVuSans-Oblique-77" d="M 544 3500 
L 1113 3500 
L 1259 684 
L 2566 3500 
L 3231 3500 
L 3425 684 
L 4666 3500 
L 5241 3500 
L 3641 0 
L 2969 0 
L 2797 2900 
L 1459 0 
L 781 0 
L 544 3500 
z
" transform="scale(0.015625)"/>
      <path id="DejaVuSans-Oblique-68" d="M 3566 2113 
L 3156 0 
L 2578 0 
L 2988 2091 
Q 3016 2238 3031 2350 
Q 3047 2463 3047 2528 
Q 3047 2791 2881 2937 
Q 2716 3084 2419 3084 
Q 1956 3084 1617 2771 
Q 1278 2459 1178 1941 
L 800 0 
L 225 0 
L 1172 4863 
L 1747 4863 
L 1375 2950 
Q 1594 3244 1934 3414 
Q 2275 3584 2650 3584 
Q 3113 3584 3367 3334 
Q 3622 3084 3622 2631 
Q 3622 2519 3608 2391 
Q 3594 2263 3566 2113 
z
" transform="scale(0.015625)"/>
     </defs>
     <use xlink:href="#DejaVuSans-Oblique-54"/>
     <use xlink:href="#DejaVuSans-Oblique-72" transform="translate(53.333984 0)"/>
     <use xlink:href="#DejaVuSans-Oblique-61" transform="translate(94.447266 0)"/>
     <use xlink:href="#DejaVuSans-Oblique-64" transform="translate(155.726562 0)"/>
     <use xlink:href="#DejaVuSans-Oblique-69" transform="translate(219.203125 0)"/>
     <use xlink:href="#DejaVuSans-Oblique-74" transform="translate(246.986328 0)"/>
     <use xlink:href="#DejaVuSans-Oblique-69" transform="translate(286.195312 0)"/>
     <use xlink:href="#DejaVuSans-Oblique-6f" transform="translate(313.978516 0)"/>
     <use xlink:href="#DejaVuSans-Oblique-6e" transform="translate(375.160156 0)"/>
     <use xlink:href="#DejaVuSans-Oblique-61" transform="translate(438.539062 0)"/>
     <use xlink:href="#DejaVuSans-Oblique-6c" transform="translate(499.818359 0)"/>
     <use xlink:href="#DejaVuSans-Oblique-20" transform="translate(527.601562 0)"/>
     <use xlink:href="#DejaVuSans-Oblique-4f" transform="translate(559.388672 0)"/>
     <use xlink:href="#DejaVuSans-Oblique-43" transform="translate(638.099609 0)"/>
     <use xlink:href="#DejaVuSans-Oblique-52" transform="translate(707.923828 0)"/>
     <use xlink:href="#DejaVuSans-Oblique-20" transform="translate(777.40625 0)"/>
     <use xlink:href="#DejaVuSans-Oblique-77" transform="translate(809.193359 0)"/>
     <use xlink:href="#DejaVuSans-Oblique-69" transform="translate(890.980469 0)"/>
     <use xlink:href="#DejaVuSans-Oblique-74" transform="translate(918.763672 0)"/>
     <use xlink:href="#DejaVuSans-Oblique-68" transform="translate(957.972656 0)"/>
    </g>
    <!-- rule-based extraction -->
    <g transform="translate(277.425564 523.6095) scale(0.09 -0.09)">
     <defs>
      <path id="DejaVuSans-Oblique-75" d="M 428 1388 
L 838 3500 
L 1416 3500 
L 1006 1409 
Q 975 1256 961 1147 
Q 947 1038 947 966 
Q 947 700 1109 554 
Q 1272 409 1569 409 
Q 2031 409 2368 721 
Q 2706 1034 2809 1563 
L 3194 3500 
L 3769 3500 
L 3091 0 
L 2516 0 
L 2631 550 
Q 2388 244 2052 76 
Q 1716 -91 1338 -91 
Q 878 -91 622 161 
Q 366 413 366 863 
Q 366 956 381 1097 
Q 397 1238 428 1388 
z
" transform="scale(0.015625)"/>
      <path id="DejaVuSans-Oblique-65" d="M 3078 2063 
Q 3088 2113 3092 2166 
Q 3097 2219 3097 2272 
Q 3097 2653 2873 2875 
Q 2650 3097 2266 3097 
Q 1838 3097 1509 2826 
Q 1181 2556 1013 2059 
L 3078 2063 
z
M 3578 1613 
L 903 1613 
Q 884 1494 878 1425 
Q 872 1356 872 1306 
Q 872 872 1139 634 
Q 1406 397 1894 397 
Q 2269 397 2603 481 
Q 2938 566 3225 728 
L 3116 159 
Q 2806 34 2476 -28 
Q 2147 -91 1806 -91 
Q 1078 -91 686 257 
Q 294 606 294 1247 
Q 294 1794 489 2264 
Q 684 2734 1063 3103 
Q 1306 3334 1642 3459 
Q 1978 3584 2356 3584 
Q 2950 3584 3301 3228 
Q 3653 2872 3653 2272 
Q 3653 2128 3634 1964 
Q 3616 1800 3578 1613 
z
" transform="scale(0.015625)"/>
      <path id="DejaVuSans-Oblique-2d" d="M 391 2009 
L 2075 2009 
L 1978 1497 
L 288 1497 
L 391 2009 
z
" transform="scale(0.015625)"/>
      <path id="DejaVuSans-Oblique-62" d="M 3169 2138 
Q 3169 2591 2961 2847 
Q 2753 3103 2388 3103 
Q 2122 3103 1889 2973 
Q 1656 2844 1484 2597 
Q 1303 2338 1198 1995 
Q 1094 1653 1094 1313 
Q 1094 881 1298 636 
Q 1503 391 1863 391 
Q 2134 391 2365 517 
Q 2597 644 2772 891 
Q 2950 1147 3059 1487 
Q 3169 1828 3169 2138 
z
M 1381 2969 
Q 1594 3256 1914 3420 
Q 2234 3584 2584 3584 
Q 3122 3584 3439 3221 
Q 3756 2859 3756 2241 
Q 3756 1734 3570 1259 
Q 3384 784 3041 416 
Q 2816 172 2522 40 
Q 2228 -91 1906 -91 
Q 1566 -91 1316 65 
Q 1066 222 909 531 
L 806 0 
L 231 0 
L 1178 4863 
L 1753 4863 
L 1381 2969 
z
" transform="scale(0.015625)"/>
      <path id="DejaVuSans-Oblique-73" d="M 3200 3397 
L 3091 2853 
Q 2863 2978 2609 3040 
Q 2356 3103 2088 3103 
Q 1634 3103 1373 2948 
Q 1113 2794 1113 2528 
Q 1113 2219 1719 2053 
Q 1766 2041 1788 2034 
L 1972 1978 
Q 2547 1819 2739 1644 
Q 2931 1469 2931 1166 
Q 2931 609 2489 259 
Q 2047 -91 1331 -91 
Q 1053 -91 747 -37 
Q 441 16 72 128 
L 184 722 
Q 500 559 806 475 
Q 1113 391 1394 391 
Q 1816 391 2080 572 
Q 2344 753 2344 1031 
Q 2344 1331 1650 1516 
L 1591 1531 
L 1394 1581 
Q 956 1697 753 1886 
Q 550 2075 550 2369 
Q 550 2928 970 3256 
Q 1391 3584 2113 3584 
Q 2397 3584 2667 3537 
Q 2938 3491 3200 3397 
z
" transform="scale(0.015625)"/>
      <path id="DejaVuSans-Oblique-78" d="M 3841 3500 
L 2234 1784 
L 3219 0 
L 2559 0 
L 1819 1388 
L 531 0 
L -166 0 
L 1556 1844 
L 641 3500 
L 1300 3500 
L 1972 2234 
L 3144 3500 
L 3841 3500 
z
" transform="scale(0.015625)"/>
      <path id="DejaVuSans-Oblique-63" d="M 3431 3366 
L 3316 2797 
Q 3109 2947 2876 3022 
Q 2644 3097 2394 3097 
Q 2119 3097 1870 3000 
Q 1622 2903 1453 2725 
Q 1184 2453 1037 2087 
Q 891 1722 891 1331 
Q 891 859 1127 628 
Q 1363 397 1844 397 
Q 2081 397 2348 469 
Q 2616 541 2906 684 
L 2797 116 
Q 2547 13 2283 -39 
Q 2019 -91 1741 -91 
Q 1044 -91 669 257 
Q 294 606 294 1253 
Q 294 1797 489 2255 
Q 684 2713 1069 3078 
Q 1331 3328 1684 3456 
Q 2038 3584 2456 3584 
Q 2700 3584 2940 3529 
Q 3181 3475 3431 3366 
z
" transform="scale(0.015625)"/>
     </defs>
     <use xlink:href="#DejaVuSans-Oblique-72"/>
     <use xlink:href="#DejaVuSans-Oblique-75" transform="translate(41.113281 0)"/>
     <use xlink:href="#DejaVuSans-Oblique-6c" transform="translate(104.492188 0)"/>
     <use xlink:href="#DejaVuSans-Oblique-65" transform="translate(132.275391 0)"/>
     <use xlink:href="#DejaVuSans-Oblique-2d" transform="translate(193.798828 0)"/>
     <use xlink:href="#DejaVuSans-Oblique-62" transform="translate(229.882812 0)"/>
     <use xlink:href="#DejaVuSans-Oblique-61" transform="translate(293.359375 0)"/>
     <use xlink:href="#DejaVuSans-Oblique-73" transform="translate(354.638672 0)"/>
     <use xlink:href="#DejaVuSans-Oblique-65" transform="translate(406.738281 0)"/>
     <use xlink:href="#DejaVuSans-Oblique-64" transform="translate(468.261719 0)"/>
     <use xlink:href="#DejaVuSans-Oblique-20" transform="translate(531.738281 0)"/>
     <use xlink:href="#DejaVuSans-Oblique-65" transform="translate(563.525391 0)"/>
     <use xlink:href="#DejaVuSans-Oblique-78" transform="translate(625.048828 0)"/>
     <use xlink:href="#DejaVuSans-Oblique-74" transform="translate(684.228516 0)"/>
     <use xlink:href="#DejaVuSans-Oblique-72" transform="translate(723.4375 0)"/>
     <use xlink:href="#DejaVuSans-Oblique-61" transform="translate(764.550781 0)"/>
     <use xlink:href="#DejaVuSans-Oblique-63" transform="translate(825.830078 0)"/>
     <use xlink:href="#DejaVuSans-Oblique-74" transform="translate(880.810547 0)"/>
     <use xlink:href="#DejaVuSans-Oblique-69" transform="translate(920.019531 0)"/>
     <use xlink:href="#DejaVuSans-Oblique-6f" transform="translate(947.802734 0)"/>
     <use xlink:href="#DejaVuSans-Oblique-6e" transform="translate(1008.984375 0)"/>
    </g>
   </g>
   <g id="text_4">
    <!-- 2018-2020 -->
    <g transform="translate(614.258629 376.79625) scale(0.1 -0.1)">
     <use xlink:href="#DejaVuSans-Bold-32"/>
     <use xlink:href="#DejaVuSans-Bold-30" transform="translate(69.580078 0)"/>
     <use xlink:href="#DejaVuSans-Bold-31" transform="translate(139.160156 0)"/>
     <use xlink:href="#DejaVuSans-Bold-38" transform="translate(208.740234 0)"/>
     <use xlink:href="#DejaVuSans-Bold-2d" transform="translate(278.320312 0)"/>
     <use xlink:href="#DejaVuSans-Bold-32" transform="translate(319.824219 0)"/>
     <use xlink:href="#DejaVuSans-Bold-30" transform="translate(389.404297 0)"/>
     <use xlink:href="#DejaVuSans-Bold-32" transform="translate(458.984375 0)"/>
     <use xlink:href="#DejaVuSans-Bold-30" transform="translate(528.564453 0)"/>
    </g>
   </g>
   <g id="text_5">
    <!-- CNN-based document analysis -->
    <g transform="translate(550.083082 239.007281) scale(0.11 -0.11)">
     <defs>
      <path id="DejaVuSans-Bold-4e" d="M 588 4666 
L 1931 4666 
L 3628 1466 
L 3628 4666 
L 4769 4666 
L 4769 0 
L 3425 0 
L 1728 3200 
L 1728 0 
L 588 0 
L 588 4666 
z
" transform="scale(0.015625)"/>
      <path id="DejaVuSans-Bold-6f" d="M 2203 2784 
Q 1831 2784 1636 2517 
Q 1441 2250 1441 1747 
Q 1441 1244 1636 976 
Q 1831 709 2203 709 
Q 2569 709 2762 976 
Q 2956 1244 2956 1747 
Q 2956 2250 2762 2517 
Q 2569 2784 2203 2784 
z
M 2203 3584 
Q 3106 3584 3614 3096 
Q 4122 2609 4122 1747 
Q 4122 884 3614 396 
Q 3106 -91 2203 -91 
Q 1297 -91 786 396 
Q 275 884 275 1747 
Q 275 2609 786 3096 
Q 1297 3584 2203 3584 
z
" transform="scale(0.015625)"/>
      <path id="DejaVuSans-Bold-63" d="M 3366 3391 
L 3366 2478 
Q 3138 2634 2908 2709 
Q 2678 2784 2431 2784 
Q 1963 2784 1702 2511 
Q 1441 2238 1441 1747 
Q 1441 1256 1702 982 
Q 1963 709 2431 709 
Q 2694 709 2930 787 
Q 3166 866 3366 1019 
L 3366 103 
Q 3103 6 2833 -42 
Q 2563 -91 2291 -91 
Q 1344 -91 809 395 
Q 275 881 275 1747 
Q 275 2613 809 3098 
Q 1344 3584 2291 3584 
Q 2566 3584 2833 3536 
Q 3100 3488 3366 3391 
z
" transform="scale(0.015625)"/>
      <path id="DejaVuSans-Bold-6d" d="M 3781 2919 
Q 3994 3244 4286 3414 
Q 4578 3584 4928 3584 
Q 5531 3584 5847 3212 
Q 6163 2841 6163 2131 
L 6163 0 
L 5038 0 
L 5038 1825 
Q 5041 1866 5042 1909 
Q 5044 1953 5044 2034 
Q 5044 2406 4934 2573 
Q 4825 2741 4581 2741 
Q 4263 2741 4089 2478 
Q 3916 2216 3909 1719 
L 3909 0 
L 2784 0 
L 2784 1825 
Q 2784 2406 2684 2573 
Q 2584 2741 2328 2741 
Q 2006 2741 1831 2477 
Q 1656 2213 1656 1722 
L 1656 0 
L 531 0 
L 531 3500 
L 1656 3500 
L 1656 2988 
Q 1863 3284 2130 3434 
Q 2397 3584 2719 3584 
Q 3081 3584 3359 3409 
Q 3638 3234 3781 2919 
z
" transform="scale(0.015625)"/>
      <path id="DejaVuSans-Bold-74" d="M 1759 4494 
L 1759 3500 
L 2913 3500 
L 2913 2700 
L 1759 2700 
L 1759 1216 
Q 1759 972 1856 886 
Q 1953 800 2241 800 
L 2816 800 
L 2816 0 
L 1856 0 
Q 1194 0 917 276 
Q 641 553 641 1216 
L 641 2700 
L 84 2700 
L 84 3500 
L 641 3500 
L 641 4494 
L 1759 4494 
z
" transform="scale(0.015625)"/>
      <path id="DejaVuSans-Bold-79" d="M 78 3500 
L 1197 3500 
L 2138 1125 
L 2938 3500 
L 4056 3500 
L 2584 -331 
Q 2363 -916 2067 -1148 
Q 1772 -1381 1288 -1381 
L 641 -1381 
L 641 -647 
L 991 -647 
Q 1275 -647 1404 -556 
Q 1534 -466 1606 -231 
L 1638 -134 
L 78 3500 
z
" transform="scale(0.015625)"/>
     </defs>
     <use xlink:href="#DejaVuSans-Bold-43"/>
     <use xlink:href="#DejaVuSans-Bold-4e" transform="translate(73.388672 0)"/>
     <use xlink:href="#DejaVuSans-Bold-4e" transform="translate(157.080078 0)"/>
     <use xlink:href="#DejaVuSans-Bold-2d" transform="translate(240.771484 0)"/>
     <use xlink:href="#DejaVuSans-Bold-62" transform="translate(282.275391 0)"/>
     <use xlink:href="#DejaVuSans-Bold-61" transform="translate(353.857422 0)"/>
     <use xlink:href="#DejaVuSans-Bold-73" transform="translate(421.337891 0)"/>
     <use xlink:href="#DejaVuSans-Bold-65" transform="translate(480.859375 0)"/>
     <use xlink:href="#DejaVuSans-Bold-64" transform="translate(548.681641 0)"/>
     <use xlink:href="#DejaVuSans-Bold-20" transform="translate(620.263672 0)"/>
     <use xlink:href="#DejaVuSans-Bold-64" transform="translate(655.078125 0)"/>
     <use xlink:href="#DejaVuSans-Bold-6f" transform="translate(726.660156 0)"/>
     <use xlink:href="#DejaVuSans-Bold-63" transform="translate(795.361328 0)"/>
     <use xlink:href="#DejaVuSans-Bold-75" transform="translate(854.638672 0)"/>
     <use xlink:href="#DejaVuSans-Bold-6d" transform="translate(925.830078 0)"/>
     <use xlink:href="#DejaVuSans-Bold-65" transform="translate(1030.029297 0)"/>
     <use xlink:href="#DejaVuSans-Bold-6e" transform="translate(1097.851562 0)"/>
     <use xlink:href="#DejaVuSans-Bold-74" transform="translate(1169.042969 0)"/>
     <use xlink:href="#DejaVuSans-Bold-20" transform="translate(1216.845703 0)"/>
     <use xlink:href="#DejaVuSans-Bold-61" transform="translate(1251.660156 0)"/>
     <use xlink:href="#DejaVuSans-Bold-6e" transform="translate(1319.140625 0)"/>
     <use xlink:href="#DejaVuSans-Bold-61" transform="translate(1390.332031 0)"/>
     <use xlink:href="#DejaVuSans-Bold-6c" transform="translate(1457.8125 0)"/>
     <use xlink:href="#DejaVuSans-Bold-79" transform="translate(1492.089844 0)"/>
     <use xlink:href="#DejaVuSans-Bold-73" transform="translate(1557.275391 0)"/>
     <use xlink:href="#DejaVuSans-Bold-69" transform="translate(1616.796875 0)"/>
     <use xlink:href="#DejaVuSans-Bold-73" transform="translate(1651.074219 0)"/>
    </g>
   </g>
   <g id="text_6">
    <!-- Deep learning for -->
    <g transform="translate(604.820113 513.531469) scale(0.09 -0.09)">
     <defs>
      <path id="DejaVuSans-Oblique-44" d="M 1081 4666 
L 2438 4666 
Q 3519 4666 4070 4208 
Q 4622 3750 4622 2847 
Q 4622 2250 4412 1698 
Q 4203 1147 3834 769 
Q 3463 381 2891 190 
Q 2319 0 1538 0 
L 172 0 
L 1081 4666 
z
M 1613 4147 
L 909 519 
L 1734 519 
Q 2794 519 3375 1128 
Q 3956 1738 3956 2847 
Q 3956 3519 3581 3833 
Q 3206 4147 2406 4147 
L 1613 4147 
z
" transform="scale(0.015625)"/>
      <path id="DejaVuSans-Oblique-70" d="M 3175 2156 
Q 3175 2616 2975 2859 
Q 2775 3103 2400 3103 
Q 2144 3103 1911 2972 
Q 1678 2841 1497 2591 
Q 1319 2344 1212 1994 
Q 1106 1644 1106 1300 
Q 1106 863 1306 627 
Q 1506 391 1875 391 
Q 2147 391 2380 519 
Q 2613 647 2778 891 
Q 2956 1147 3065 1494 
Q 3175 1841 3175 2156 
z
M 1394 2969 
Q 1625 3272 1939 3428 
Q 2253 3584 2638 3584 
Q 3175 3584 3472 3232 
Q 3769 2881 3769 2247 
Q 3769 1728 3584 1258 
Q 3400 788 3053 416 
Q 2822 169 2531 39 
Q 2241 -91 1919 -91 
Q 1547 -91 1294 64 
Q 1041 219 916 525 
L 556 -1331 
L -19 -1331 
L 922 3500 
L 1497 3500 
L 1394 2969 
z
" transform="scale(0.015625)"/>
      <path id="DejaVuSans-Oblique-67" d="M 3816 3500 
L 3219 434 
Q 3047 -456 2561 -893 
Q 2075 -1331 1253 -1331 
Q 950 -1331 690 -1286 
Q 431 -1241 206 -1147 
L 313 -588 
Q 525 -725 762 -790 
Q 1000 -856 1269 -856 
Q 1816 -856 2167 -557 
Q 2519 -259 2631 300 
L 2681 563 
Q 2441 288 2122 144 
Q 1803 0 1434 0 
Q 903 0 598 351 
Q 294 703 294 1319 
Q 294 1803 478 2267 
Q 663 2731 997 3091 
Q 1219 3328 1514 3456 
Q 1809 3584 2131 3584 
Q 2484 3584 2746 3420 
Q 3009 3256 3138 2956 
L 3238 3500 
L 3816 3500 
z
M 2950 2216 
Q 2950 2641 2750 2872 
Q 2550 3103 2181 3103 
Q 1953 3103 1747 3012 
Q 1541 2922 1394 2759 
Q 1156 2491 1023 2127 
Q 891 1763 891 1375 
Q 891 944 1092 712 
Q 1294 481 1672 481 
Q 2219 481 2584 976 
Q 2950 1472 2950 2216 
z
" transform="scale(0.015625)"/>
      <path id="DejaVuSans-Oblique-66" d="M 3059 4863 
L 2969 4384 
L 2419 4384 
Q 2106 4384 1964 4261 
Q 1822 4138 1753 3809 
L 1691 3500 
L 2638 3500 
L 2553 3053 
L 1606 3053 
L 1013 0 
L 434 0 
L 1031 3053 
L 481 3053 
L 563 3500 
L 1113 3500 
L 1159 3744 
Q 1278 4363 1576 4613 
Q 1875 4863 2516 4863 
L 3059 4863 
z
" transform="scale(0.015625)"/>
     </defs>
     <use xlink:href="#DejaVuSans-Oblique-44"/>
     <use xlink:href="#DejaVuSans-Oblique-65" transform="translate(77.001953 0)"/>
     <use xlink:href="#DejaVuSans-Oblique-65" transform="translate(138.525391 0)"/>
     <use xlink:href="#DejaVuSans-Oblique-70" transform="translate(200.048828 0)"/>
     <use xlink:href="#DejaVuSans-Oblique-20" transform="translate(263.525391 0)"/>
     <use xlink:href="#DejaVuSans-Oblique-6c" transform="translate(295.3125 0)"/>
     <use xlink:href="#DejaVuSans-Oblique-65" transform="translate(323.095703 0)"/>
     <use xlink:href="#DejaVuSans-Oblique-61" transform="translate(384.619141 0)"/>
     <use xlink:href="#DejaVuSans-Oblique-72" transform="translate(445.898438 0)"/>
     <use xlink:href="#DejaVuSans-Oblique-6e" transform="translate(487.011719 0)"/>
     <use xlink:href="#DejaVuSans-Oblique-69" transform="translate(550.390625 0)"/>
     <use xlink:href="#DejaVuSans-Oblique-6e" transform="translate(578.173828 0)"/>
     <use xlink:href="#DejaVuSans-Oblique-67" transform="translate(641.552734 0)"/>
     <use xlink:href="#DejaVuSans-Oblique-20" transform="translate(705.029297 0)"/>
     <use xlink:href="#DejaVuSans-Oblique-66" transform="translate(736.816406 0)"/>
     <use xlink:href="#DejaVuSans-Oblique-6f" transform="translate(772.021484 0)"/>
     <use xlink:href="#DejaVuSans-Oblique-72" transform="translate(833.203125 0)"/>
    </g>
    <!-- document understanding -->
    <g transform="translate(587.317223 523.6095) scale(0.09 -0.09)">
     <defs>
      <path id="DejaVuSans-Oblique-6d" d="M 5747 2113 
L 5338 0 
L 4763 0 
L 5166 2094 
Q 5191 2228 5203 2325 
Q 5216 2422 5216 2491 
Q 5216 2772 5059 2928 
Q 4903 3084 4622 3084 
Q 4203 3084 3875 2770 
Q 3547 2456 3450 1953 
L 3066 0 
L 2491 0 
L 2900 2094 
Q 2925 2209 2937 2307 
Q 2950 2406 2950 2484 
Q 2950 2769 2794 2926 
Q 2638 3084 2363 3084 
Q 1938 3084 1609 2770 
Q 1281 2456 1184 1953 
L 800 0 
L 225 0 
L 909 3500 
L 1484 3500 
L 1375 2956 
Q 1609 3263 1923 3423 
Q 2238 3584 2597 3584 
Q 2978 3584 3223 3384 
Q 3469 3184 3519 2828 
Q 3781 3197 4126 3390 
Q 4472 3584 4856 3584 
Q 5306 3584 5551 3325 
Q 5797 3066 5797 2591 
Q 5797 2488 5784 2364 
Q 5772 2241 5747 2113 
z
" transform="scale(0.015625)"/>
     </defs>
     <use xlink:href="#DejaVuSans-Oblique-64"/>
     <use xlink:href="#DejaVuSans-Oblique-6f" transform="translate(63.476562 0)"/>
     <use xlink:href="#DejaVuSans-Oblique-63" transform="translate(124.658203 0)"/>
     <use xlink:href="#DejaVuSans-Oblique-75" transform="translate(179.638672 0)"/>
     <use xlink:href="#DejaVuSans-Oblique-6d" transform="translate(243.017578 0)"/>
     <use xlink:href="#DejaVuSans-Oblique-65" transform="translate(340.429688 0)"/>
     <use xlink:href="#DejaVuSans-Oblique-6e" transform="translate(401.953125 0)"/>
     <use xlink:href="#DejaVuSans-Oblique-74" transform="translate(465.332031 0)"/>
     <use xlink:href="#DejaVuSans-Oblique-20" transform="translate(504.541016 0)"/>
     <use xlink:href="#DejaVuSans-Oblique-75" transform="translate(536.328125 0)"/>
     <use xlink:href="#DejaVuSans-Oblique-6e" transform="translate(599.707031 0)"/>
     <use xlink:href="#DejaVuSans-Oblique-64" transform="translate(663.085938 0)"/>
     <use xlink:href="#DejaVuSans-Oblique-65" transform="translate(726.5625 0)"/>
     <use xlink:href="#DejaVuSans-Oblique-72" transform="translate(788.085938 0)"/>
     <use xlink:href="#DejaVuSans-Oblique-73" transform="translate(829.199219 0)"/>
     <use xlink:href="#DejaVuSans-Oblique-74" transform="translate(881.298828 0)"/>
     <use xlink:href="#DejaVuSans-Oblique-61" transform="translate(920.507812 0)"/>
     <use xlink:href="#DejaVuSans-Oblique-6e" transform="translate(981.787109 0)"/>
     <use xlink:href="#DejaVuSans-Oblique-64" transform="translate(1045.166016 0)"/>
     <use xlink:href="#DejaVuSans-Oblique-69" transform="translate(1108.642578 0)"/>
     <use xlink:href="#DejaVuSans-Oblique-6e" transform="translate(1136.425781 0)"/>
     <use xlink:href="#DejaVuSans-Oblique-67" transform="translate(1199.804688 0)"/>
    </g>
   </g>
   <g id="text_7">
    <!-- 2020 -->
    <g transform="translate(719.424337 376.79625) scale(0.1 -0.1)">
     <use xlink:href="#DejaVuSans-Bold-32"/>
     <use xlink:href="#DejaVuSans-Bold-30" transform="translate(69.580078 0)"/>
     <use xlink:href="#DejaVuSans-Bold-32" transform="translate(139.160156 0)"/>
     <use xlink:href="#DejaVuSans-Bold-30" transform="translate(208.740234 0)"/>
    </g>
   </g>
   <g id="text_8">
    <!-- LayoutLM - First transformer for documents -->
    <g transform="translate(596.944259 239.007281) scale(0.11 -0.11)">
     <defs>
      <path id="DejaVuSans-Bold-4c" d="M 588 4666 
L 1791 4666 
L 1791 909 
L 3903 909 
L 3903 0 
L 588 0 
L 588 4666 
z
" transform="scale(0.015625)"/>
      <path id="DejaVuSans-Bold-4d" d="M 588 4666 
L 2119 4666 
L 3181 2169 
L 4250 4666 
L 5778 4666 
L 5778 0 
L 4641 0 
L 4641 3413 
L 3566 897 
L 2803 897 
L 1728 3413 
L 1728 0 
L 588 0 
L 588 4666 
z
" transform="scale(0.015625)"/>
      <path id="DejaVuSans-Bold-46" d="M 588 4666 
L 3834 4666 
L 3834 3756 
L 1791 3756 
L 1791 2888 
L 3713 2888 
L 3713 1978 
L 1791 1978 
L 1791 0 
L 588 0 
L 588 4666 
z
" transform="scale(0.015625)"/>
      <path id="DejaVuSans-Bold-66" d="M 2841 4863 
L 2841 4128 
L 2222 4128 
Q 1984 4128 1890 4042 
Q 1797 3956 1797 3744 
L 1797 3500 
L 2753 3500 
L 2753 2700 
L 1797 2700 
L 1797 0 
L 678 0 
L 678 2700 
L 122 2700 
L 122 3500 
L 678 3500 
L 678 3744 
Q 678 4316 997 4589 
Q 1316 4863 1984 4863 
L 2841 4863 
z
" transform="scale(0.015625)"/>
     </defs>
     <use xlink:href="#DejaVuSans-Bold-4c"/>
     <use xlink:href="#DejaVuSans-Bold-61" transform="translate(63.720703 0)"/>
     <use xlink:href="#DejaVuSans-Bold-79" transform="translate(128.076172 0)"/>
     <use xlink:href="#DejaVuSans-Bold-6f" transform="translate(193.261719 0)"/>
     <use xlink:href="#DejaVuSans-Bold-75" transform="translate(261.962891 0)"/>
     <use xlink:href="#DejaVuSans-Bold-74" transform="translate(333.154297 0)"/>
     <use xlink:href="#DejaVuSans-Bold-4c" transform="translate(380.957031 0)"/>
     <use xlink:href="#DejaVuSans-Bold-4d" transform="translate(444.677734 0)"/>
     <use xlink:href="#DejaVuSans-Bold-20" transform="translate(544.189453 0)"/>
     <use xlink:href="#DejaVuSans-Bold-2d" transform="translate(579.003906 0)"/>
     <use xlink:href="#DejaVuSans-Bold-20" transform="translate(620.507812 0)"/>
     <use xlink:href="#DejaVuSans-Bold-46" transform="translate(655.322266 0)"/>
     <use xlink:href="#DejaVuSans-Bold-69" transform="translate(723.632812 0)"/>
     <use xlink:href="#DejaVuSans-Bold-72" transform="translate(757.910156 0)"/>
     <use xlink:href="#DejaVuSans-Bold-73" transform="translate(807.226562 0)"/>
     <use xlink:href="#DejaVuSans-Bold-74" transform="translate(866.748047 0)"/>
     <use xlink:href="#DejaVuSans-Bold-20" transform="translate(914.550781 0)"/>
     <use xlink:href="#DejaVuSans-Bold-74" transform="translate(949.365234 0)"/>
     <use xlink:href="#DejaVuSans-Bold-72" transform="translate(997.167969 0)"/>
     <use xlink:href="#DejaVuSans-Bold-61" transform="translate(1046.484375 0)"/>
     <use xlink:href="#DejaVuSans-Bold-6e" transform="translate(1113.964844 0)"/>
     <use xlink:href="#DejaVuSans-Bold-73" transform="translate(1185.15625 0)"/>
     <use xlink:href="#DejaVuSans-Bold-66" transform="translate(1244.677734 0)"/>
     <use xlink:href="#DejaVuSans-Bold-6f" transform="translate(1288.183594 0)"/>
     <use xlink:href="#DejaVuSans-Bold-72" transform="translate(1356.884766 0)"/>
     <use xlink:href="#DejaVuSans-Bold-6d" transform="translate(1406.201172 0)"/>
     <use xlink:href="#DejaVuSans-Bold-65" transform="translate(1510.400391 0)"/>
     <use xlink:href="#DejaVuSans-Bold-72" transform="translate(1578.222656 0)"/>
     <use xlink:href="#DejaVuSans-Bold-20" transform="translate(1627.539062 0)"/>
     <use xlink:href="#DejaVuSans-Bold-66" transform="translate(1662.353516 0)"/>
     <use xlink:href="#DejaVuSans-Bold-6f" transform="translate(1705.859375 0)"/>
     <use xlink:href="#DejaVuSans-Bold-72" transform="translate(1774.560547 0)"/>
     <use xlink:href="#DejaVuSans-Bold-20" transform="translate(1823.876953 0)"/>
     <use xlink:href="#DejaVuSans-Bold-64" transform="translate(1858.691406 0)"/>
     <use xlink:href="#DejaVuSans-Bold-6f" transform="translate(1930.273438 0)"/>
     <use xlink:href="#DejaVuSans-Bold-63" transform="translate(1998.974609 0)"/>
     <use xlink:href="#DejaVuSans-Bold-75" transform="translate(2058.251953 0)"/>
     <use xlink:href="#DejaVuSans-Bold-6d" transform="translate(2129.443359 0)"/>
     <use xlink:href="#DejaVuSans-Bold-65" transform="translate(2233.642578 0)"/>
     <use xlink:href="#DejaVuSans-Bold-6e" transform="translate(2301.464844 0)"/>
     <use xlink:href="#DejaVuSans-Bold-74" transform="translate(2372.65625 0)"/>
     <use xlink:href="#DejaVuSans-Bold-73" transform="translate(2420.458984 0)"/>
    </g>
   </g>
   <g id="text_9">
    <!-- Breakthrough: Text + -->
    <g transform="translate(684.955118 513.531469) scale(0.09 -0.09)">
     <defs>
      <path id="DejaVuSans-Oblique-42" d="M 1081 4666 
L 2694 4666 
Q 3350 4666 3675 4422 
Q 4000 4178 4000 3688 
Q 4000 3238 3720 2911 
Q 3441 2584 2988 2516 
Q 3375 2428 3569 2181 
Q 3763 1934 3763 1522 
Q 3763 819 3242 409 
Q 2722 0 1819 0 
L 172 0 
L 1081 4666 
z
M 1234 2228 
L 903 519 
L 1919 519 
Q 2491 519 2800 781 
Q 3109 1044 3109 1522 
Q 3109 1891 2904 2059 
Q 2700 2228 2247 2228 
L 1234 2228 
z
M 1606 4147 
L 1331 2741 
L 2272 2741 
Q 2775 2741 3058 2959 
Q 3341 3178 3341 3566 
Q 3341 3869 3150 4008 
Q 2959 4147 2541 4147 
L 1606 4147 
z
" transform="scale(0.015625)"/>
      <path id="DejaVuSans-Oblique-6b" d="M 1172 4863 
L 1747 4863 
L 1197 2028 
L 3169 3500 
L 3916 3500 
L 1716 1825 
L 3322 0 
L 2625 0 
L 1131 1709 
L 800 0 
L 225 0 
L 1172 4863 
z
" transform="scale(0.015625)"/>
      <path id="DejaVuSans-Oblique-3a" d="M 978 3309 
L 1638 3309 
L 1484 2516 
L 825 2516 
L 978 3309 
z
M 488 794 
L 1147 794 
L 991 0 
L 331 0 
L 488 794 
z
" transform="scale(0.015625)"/>
      <path id="DejaVuSans-Oblique-2b" d="M 2944 4013 
L 2944 2272 
L 4684 2272 
L 4684 1741 
L 2944 1741 
L 2944 0 
L 2419 0 
L 2419 1741 
L 678 1741 
L 678 2272 
L 2419 2272 
L 2419 4013 
L 2944 4013 
z
" transform="scale(0.015625)"/>
     </defs>
     <use xlink:href="#DejaVuSans-Oblique-42"/>
     <use xlink:href="#DejaVuSans-Oblique-72" transform="translate(68.603516 0)"/>
     <use xlink:href="#DejaVuSans-Oblique-65" transform="translate(109.716797 0)"/>
     <use xlink:href="#DejaVuSans-Oblique-61" transform="translate(171.240234 0)"/>
     <use xlink:href="#DejaVuSans-Oblique-6b" transform="translate(232.519531 0)"/>
     <use xlink:href="#DejaVuSans-Oblique-74" transform="translate(290.429688 0)"/>
     <use xlink:href="#DejaVuSans-Oblique-68" transform="translate(329.638672 0)"/>
     <use xlink:href="#DejaVuSans-Oblique-72" transform="translate(393.017578 0)"/>
     <use xlink:href="#DejaVuSans-Oblique-6f" transform="translate(434.130859 0)"/>
     <use xlink:href="#DejaVuSans-Oblique-75" transform="translate(495.3125 0)"/>
     <use xlink:href="#DejaVuSans-Oblique-67" transform="translate(558.691406 0)"/>
     <use xlink:href="#DejaVuSans-Oblique-68" transform="translate(622.167969 0)"/>
     <use xlink:href="#DejaVuSans-Oblique-3a" transform="translate(685.546875 0)"/>
     <use xlink:href="#DejaVuSans-Oblique-20" transform="translate(719.238281 0)"/>
     <use xlink:href="#DejaVuSans-Oblique-54" transform="translate(751.025391 0)"/>
     <use xlink:href="#DejaVuSans-Oblique-65" transform="translate(799.734375 0)"/>
     <use xlink:href="#DejaVuSans-Oblique-78" transform="translate(861.257812 0)"/>
     <use xlink:href="#DejaVuSans-Oblique-74" transform="translate(920.4375 0)"/>
     <use xlink:href="#DejaVuSans-Oblique-20" transform="translate(959.646484 0)"/>
     <use xlink:href="#DejaVuSans-Oblique-2b" transform="translate(991.433594 0)"/>
    </g>
    <!-- Layout understanding -->
    <g transform="translate(683.899024 523.6095) scale(0.09 -0.09)">
     <defs>
      <path id="DejaVuSans-Oblique-4c" d="M 1075 4666 
L 1709 4666 
L 909 525 
L 3181 525 
L 3078 0 
L 172 0 
L 1075 4666 
z
" transform="scale(0.015625)"/>
      <path id="DejaVuSans-Oblique-79" d="M 1588 -325 
Q 1188 -997 936 -1164 
Q 684 -1331 294 -1331 
L -159 -1331 
L -63 -850 
L 269 -850 
Q 509 -850 678 -719 
Q 847 -588 1056 -206 
L 1234 128 
L 459 3500 
L 1069 3500 
L 1650 819 
L 3256 3500 
L 3859 3500 
L 1588 -325 
z
" transform="scale(0.015625)"/>
     </defs>
     <use xlink:href="#DejaVuSans-Oblique-4c"/>
     <use xlink:href="#DejaVuSans-Oblique-61" transform="translate(55.712891 0)"/>
     <use xlink:href="#DejaVuSans-Oblique-79" transform="translate(116.992188 0)"/>
     <use xlink:href="#DejaVuSans-Oblique-6f" transform="translate(176.171875 0)"/>
     <use xlink:href="#DejaVuSans-Oblique-75" transform="translate(237.353516 0)"/>
     <use xlink:href="#DejaVuSans-Oblique-74" transform="translate(300.732422 0)"/>
     <use xlink:href="#DejaVuSans-Oblique-20" transform="translate(339.941406 0)"/>
     <use xlink:href="#DejaVuSans-Oblique-75" transform="translate(371.728516 0)"/>
     <use xlink:href="#DejaVuSans-Oblique-6e" transform="translate(435.107422 0)"/>
     <use xlink:href="#DejaVuSans-Oblique-64" transform="translate(498.486328 0)"/>
     <use xlink:href="#DejaVuSans-Oblique-65" transform="translate(561.962891 0)"/>
     <use xlink:href="#DejaVuSans-Oblique-72" transform="translate(623.486328 0)"/>
     <use xlink:href="#DejaVuSans-Oblique-73" transform="translate(664.599609 0)"/>
     <use xlink:href="#DejaVuSans-Oblique-74" transform="translate(716.699219 0)"/>
     <use xlink:href="#DejaVuSans-Oblique-61" transform="translate(755.908203 0)"/>
     <use xlink:href="#DejaVuSans-Oblique-6e" transform="translate(817.1875 0)"/>
     <use xlink:href="#DejaVuSans-Oblique-64" transform="translate(880.566406 0)"/>
     <use xlink:href="#DejaVuSans-Oblique-69" transform="translate(944.042969 0)"/>
     <use xlink:href="#DejaVuSans-Oblique-6e" transform="translate(971.826172 0)"/>
     <use xlink:href="#DejaVuSans-Oblique-67" transform="translate(1035.205078 0)"/>
    </g>
   </g>
   <g id="text_10">
    <!-- 2021-2023 -->
    <g transform="translate(805.348093 376.79625) scale(0.1 -0.1)">
     <defs>
      <path id="DejaVuSans-Bold-33" d="M 2981 2516 
Q 3453 2394 3698 2092 
Q 3944 1791 3944 1325 
Q 3944 631 3412 270 
Q 2881 -91 1863 -91 
Q 1503 -91 1142 -33 
Q 781 25 428 141 
L 428 1069 
Q 766 900 1098 814 
Q 1431 728 1753 728 
Q 2231 728 2486 893 
Q 2741 1059 2741 1369 
Q 2741 1688 2480 1852 
Q 2219 2016 1709 2016 
L 1228 2016 
L 1228 2791 
L 1734 2791 
Q 2188 2791 2409 2933 
Q 2631 3075 2631 3366 
Q 2631 3634 2415 3781 
Q 2200 3928 1806 3928 
Q 1516 3928 1219 3862 
Q 922 3797 628 3669 
L 628 4550 
Q 984 4650 1334 4700 
Q 1684 4750 2022 4750 
Q 2931 4750 3382 4451 
Q 3834 4153 3834 3553 
Q 3834 3144 3618 2883 
Q 3403 2622 2981 2516 
z
" transform="scale(0.015625)"/>
     </defs>
     <use xlink:href="#DejaVuSans-Bold-32"/>
     <use xlink:href="#DejaVuSans-Bold-30" transform="translate(69.580078 0)"/>
     <use xlink:href="#DejaVuSans-Bold-32" transform="translate(139.160156 0)"/>
     <use xlink:href="#DejaVuSans-Bold-31" transform="translate(208.740234 0)"/>
     <use xlink:href="#DejaVuSans-Bold-2d" transform="translate(278.320312 0)"/>
     <use xlink:href="#DejaVuSans-Bold-32" transform="translate(319.824219 0)"/>
     <use xlink:href="#DejaVuSans-Bold-30" transform="translate(389.404297 0)"/>
     <use xlink:href="#DejaVuSans-Bold-32" transform="translate(458.984375 0)"/>
     <use xlink:href="#DejaVuSans-Bold-33" transform="translate(528.564453 0)"/>
    </g>
   </g>
   <g id="text_11">
    <!-- LayoutLMv2, LayoutLMv3 iterations -->
    <g transform="translate(724.500671 239.007281) scale(0.11 -0.11)">
     <defs>
      <path id="DejaVuSans-Bold-76" d="M 97 3500 
L 1216 3500 
L 2088 1081 
L 2956 3500 
L 4078 3500 
L 2700 0 
L 1472 0 
L 97 3500 
z
" transform="scale(0.015625)"/>
      <path id="DejaVuSans-Bold-2c" d="M 653 1209 
L 1778 1209 
L 1778 256 
L 1006 -909 
L 341 -909 
L 653 256 
L 653 1209 
z
" transform="scale(0.015625)"/>
     </defs>
     <use xlink:href="#DejaVuSans-Bold-4c"/>
     <use xlink:href="#DejaVuSans-Bold-61" transform="translate(63.720703 0)"/>
     <use xlink:href="#DejaVuSans-Bold-79" transform="translate(128.076172 0)"/>
     <use xlink:href="#DejaVuSans-Bold-6f" transform="translate(193.261719 0)"/>
     <use xlink:href="#DejaVuSans-Bold-75" transform="translate(261.962891 0)"/>
     <use xlink:href="#DejaVuSans-Bold-74" transform="translate(333.154297 0)"/>
     <use xlink:href="#DejaVuSans-Bold-4c" transform="translate(380.957031 0)"/>
     <use xlink:href="#DejaVuSans-Bold-4d" transform="translate(444.677734 0)"/>
     <use xlink:href="#DejaVuSans-Bold-76" transform="translate(544.189453 0)"/>
     <use xlink:href="#DejaVuSans-Bold-32" transform="translate(609.375 0)"/>
     <use xlink:href="#DejaVuSans-Bold-2c" transform="translate(678.955078 0)"/>
     <use xlink:href="#DejaVuSans-Bold-20" transform="translate(716.943359 0)"/>
     <use xlink:href="#DejaVuSans-Bold-4c" transform="translate(751.757812 0)"/>
     <use xlink:href="#DejaVuSans-Bold-61" transform="translate(815.478516 0)"/>
     <use xlink:href="#DejaVuSans-Bold-79" transform="translate(879.833984 0)"/>
     <use xlink:href="#DejaVuSans-Bold-6f" transform="translate(945.019531 0)"/>
     <use xlink:href="#DejaVuSans-Bold-75" transform="translate(1013.720703 0)"/>
     <use xlink:href="#DejaVuSans-Bold-74" transform="translate(1084.912109 0)"/>
     <use xlink:href="#DejaVuSans-Bold-4c" transform="translate(1132.714844 0)"/>
     <use xlink:href="#DejaVuSans-Bold-4d" transform="translate(1196.435547 0)"/>
     <use xlink:href="#DejaVuSans-Bold-76" transform="translate(1295.947266 0)"/>
     <use xlink:href="#DejaVuSans-Bold-33" transform="translate(1361.132812 0)"/>
     <use xlink:href="#DejaVuSans-Bold-20" transform="translate(1430.712891 0)"/>
     <use xlink:href="#DejaVuSans-Bold-69" transform="translate(1465.527344 0)"/>
     <use xlink:href="#DejaVuSans-Bold-74" transform="translate(1499.804688 0)"/>
     <use xlink:href="#DejaVuSans-Bold-65" transform="translate(1547.607422 0)"/>
     <use xlink:href="#DejaVuSans-Bold-72" transform="translate(1615.429688 0)"/>
     <use xlink:href="#DejaVuSans-Bold-61" transform="translate(1664.746094 0)"/>
     <use xlink:href="#DejaVuSans-Bold-74" transform="translate(1732.226562 0)"/>
     <use xlink:href="#DejaVuSans-Bold-69" transform="translate(1780.029297 0)"/>
     <use xlink:href="#DejaVuSans-Bold-6f" transform="translate(1814.306641 0)"/>
     <use xlink:href="#DejaVuSans-Bold-6e" transform="translate(1883.007812 0)"/>
     <use xlink:href="#DejaVuSans-Bold-73" transform="translate(1954.199219 0)"/>
    </g>
   </g>
   <g id="text_12">
    <!-- Enhanced multimodal -->
    <g transform="translate(786.06653 513.531469) scale(0.09 -0.09)">
     <defs>
      <path id="DejaVuSans-Oblique-45" d="M 1081 4666 
L 4031 4666 
L 3928 4134 
L 1606 4134 
L 1338 2753 
L 3566 2753 
L 3463 2222 
L 1234 2222 
L 909 531 
L 3284 531 
L 3181 0 
L 172 0 
L 1081 4666 
z
" transform="scale(0.015625)"/>
     </defs>
     <use xlink:href="#DejaVuSans-Oblique-45"/>
     <use xlink:href="#DejaVuSans-Oblique-6e" transform="translate(63.183594 0)"/>
     <use xlink:href="#DejaVuSans-Oblique-68" transform="translate(126.5625 0)"/>
     <use xlink:href="#DejaVuSans-Oblique-61" transform="translate(189.941406 0)"/>
     <use xlink:href="#DejaVuSans-Oblique-6e" transform="translate(251.220703 0)"/>
     <use xlink:href="#DejaVuSans-Oblique-63" transform="translate(314.599609 0)"/>
     <use xlink:href="#DejaVuSans-Oblique-65" transform="translate(369.580078 0)"/>
     <use xlink:href="#DejaVuSans-Oblique-64" transform="translate(431.103516 0)"/>
     <use xlink:href="#DejaVuSans-Oblique-20" transform="translate(494.580078 0)"/>
     <use xlink:href="#DejaVuSans-Oblique-6d" transform="translate(526.367188 0)"/>
     <use xlink:href="#DejaVuSans-Oblique-75" transform="translate(623.779297 0)"/>
     <use xlink:href="#DejaVuSans-Oblique-6c" transform="translate(687.158203 0)"/>
     <use xlink:href="#DejaVuSans-Oblique-74" transform="translate(714.941406 0)"/>
     <use xlink:href="#DejaVuSans-Oblique-69" transform="translate(754.150391 0)"/>
     <use xlink:href="#DejaVuSans-Oblique-6d" transform="translate(781.933594 0)"/>
     <use xlink:href="#DejaVuSans-Oblique-6f" transform="translate(879.345703 0)"/>
     <use xlink:href="#DejaVuSans-Oblique-64" transform="translate(940.527344 0)"/>
     <use xlink:href="#DejaVuSans-Oblique-61" transform="translate(1004.003906 0)"/>
     <use xlink:href="#DejaVuSans-Oblique-6c" transform="translate(1065.283203 0)"/>
    </g>
    <!-- document processing -->
    <g transform="translate(786.768952 523.6095) scale(0.09 -0.09)">
     <use xlink:href="#DejaVuSans-Oblique-64"/>
     <use xlink:href="#DejaVuSans-Oblique-6f" transform="translate(63.476562 0)"/>
     <use xlink:href="#DejaVuSans-Oblique-63" transform="translate(124.658203 0)"/>
     <use xlink:href="#DejaVuSans-Oblique-75" transform="translate(179.638672 0)"/>
     <use xlink:href="#DejaVuSans-Oblique-6d" transform="translate(243.017578 0)"/>
     <use xlink:href="#DejaVuSans-Oblique-65" transform="translate(340.429688 0)"/>
     <use xlink:href="#DejaVuSans-Oblique-6e" transform="translate(401.953125 0)"/>
     <use xlink:href="#DejaVuSans-Oblique-74" transform="translate(465.332031 0)"/>
     <use xlink:href="#DejaVuSans-Oblique-20" transform="translate(504.541016 0)"/>
     <use xlink:href="#DejaVuSans-Oblique-70" transform="translate(536.328125 0)"/>
     <use xlink:href="#DejaVuSans-Oblique-72" transform="translate(599.804688 0)"/>
     <use xlink:href="#DejaVuSans-Oblique-6f" transform="translate(640.917969 0)"/>
     <use xlink:href="#DejaVuSans-Oblique-63" transform="translate(702.099609 0)"/>
     <use xlink:href="#DejaVuSans-Oblique-65" transform="translate(757.080078 0)"/>
     <use xlink:href="#DejaVuSans-Oblique-73" transform="translate(818.603516 0)"/>
     <use xlink:href="#DejaVuSans-Oblique-73" transform="translate(870.703125 0)"/>
     <use xlink:href="#DejaVuSans-Oblique-69" transform="translate(922.802734 0)"/>
     <use xlink:href="#DejaVuSans-Oblique-6e" transform="translate(950.585938 0)"/>
     <use xlink:href="#DejaVuSans-Oblique-67" transform="translate(1013.964844 0)"/>
    </g>
   </g>
   <g id="text_13">
    <!-- 2023+ -->
    <g transform="translate(944.54185 376.79625) scale(0.1 -0.1)">
     <use xlink:href="#DejaVuSans-Bold-32"/>
     <use xlink:href="#DejaVuSans-Bold-30" transform="translate(69.580078 0)"/>
     <use xlink:href="#DejaVuSans-Bold-32" transform="translate(139.160156 0)"/>
     <use xlink:href="#DejaVuSans-Bold-33" transform="translate(208.740234 0)"/>
     <use xlink:href="#DejaVuSans-Bold-2b" transform="translate(278.320312 0)"/>
    </g>
   </g>
   <g id="text_14">
    <!-- Vision-Language Models (InternVL, Llama-Vision) -->
    <g transform="translate(810.128881 239.007281) scale(0.11 -0.11)">
     <defs>
      <path id="DejaVuSans-Bold-56" d="M 31 4666 
L 1241 4666 
L 2478 1222 
L 3713 4666 
L 4922 4666 
L 3194 0 
L 1759 0 
L 31 4666 
z
" transform="scale(0.015625)"/>
      <path id="DejaVuSans-Bold-28" d="M 2413 -844 
L 1484 -844 
Q 1006 -72 778 623 
Q 550 1319 550 2003 
Q 550 2688 779 3389 
Q 1009 4091 1484 4856 
L 2413 4856 
Q 2013 4116 1813 3408 
Q 1613 2700 1613 2009 
Q 1613 1319 1811 609 
Q 2009 -100 2413 -844 
z
" transform="scale(0.015625)"/>
      <path id="DejaVuSans-Bold-49" d="M 588 4666 
L 1791 4666 
L 1791 0 
L 588 0 
L 588 4666 
z
" transform="scale(0.015625)"/>
      <path id="DejaVuSans-Bold-29" d="M 513 -844 
Q 913 -100 1113 609 
Q 1313 1319 1313 2009 
Q 1313 2700 1113 3408 
Q 913 4116 513 4856 
L 1441 4856 
Q 1916 4091 2145 3389 
Q 2375 2688 2375 2003 
Q 2375 1319 2147 623 
Q 1919 -72 1441 -844 
L 513 -844 
z
" transform="scale(0.015625)"/>
     </defs>
     <use xlink:href="#DejaVuSans-Bold-56"/>
     <use xlink:href="#DejaVuSans-Bold-69" transform="translate(75.642578 0)"/>
     <use xlink:href="#DejaVuSans-Bold-73" transform="translate(109.919922 0)"/>
     <use xlink:href="#DejaVuSans-Bold-69" transform="translate(169.441406 0)"/>
     <use xlink:href="#DejaVuSans-Bold-6f" transform="translate(203.71875 0)"/>
     <use xlink:href="#DejaVuSans-Bold-6e" transform="translate(272.419922 0)"/>
     <use xlink:href="#DejaVuSans-Bold-2d" transform="translate(343.611328 0)"/>
     <use xlink:href="#DejaVuSans-Bold-4c" transform="translate(385.115234 0)"/>
     <use xlink:href="#DejaVuSans-Bold-61" transform="translate(448.835938 0)"/>
     <use xlink:href="#DejaVuSans-Bold-6e" transform="translate(516.316406 0)"/>
     <use xlink:href="#DejaVuSans-Bold-67" transform="translate(587.507812 0)"/>
     <use xlink:href="#DejaVuSans-Bold-75" transform="translate(659.089844 0)"/>
     <use xlink:href="#DejaVuSans-Bold-61" transform="translate(730.28125 0)"/>
     <use xlink:href="#DejaVuSans-Bold-67" transform="translate(797.761719 0)"/>
     <use xlink:href="#DejaVuSans-Bold-65" transform="translate(869.34375 0)"/>
     <use xlink:href="#DejaVuSans-Bold-20" transform="translate(937.166016 0)"/>
     <use xlink:href="#DejaVuSans-Bold-4d" transform="translate(971.980469 0)"/>
     <use xlink:href="#DejaVuSans-Bold-6f" transform="translate(1071.492188 0)"/>
     <use xlink:href="#DejaVuSans-Bold-64" transform="translate(1140.193359 0)"/>
     <use xlink:href="#DejaVuSans-Bold-65" transform="translate(1211.775391 0)"/>
     <use xlink:href="#DejaVuSans-Bold-6c" transform="translate(1279.597656 0)"/>
     <use xlink:href="#DejaVuSans-Bold-73" transform="translate(1313.875 0)"/>
     <use xlink:href="#DejaVuSans-Bold-20" transform="translate(1373.396484 0)"/>
     <use xlink:href="#DejaVuSans-Bold-28" transform="translate(1408.210938 0)"/>
     <use xlink:href="#DejaVuSans-Bold-49" transform="translate(1453.914062 0)"/>
     <use xlink:href="#DejaVuSans-Bold-6e" transform="translate(1491.121094 0)"/>
     <use xlink:href="#DejaVuSans-Bold-74" transform="translate(1562.3125 0)"/>
     <use xlink:href="#DejaVuSans-Bold-65" transform="translate(1610.115234 0)"/>
     <use xlink:href="#DejaVuSans-Bold-72" transform="translate(1677.9375 0)"/>
     <use xlink:href="#DejaVuSans-Bold-6e" transform="translate(1727.253906 0)"/>
     <use xlink:href="#DejaVuSans-Bold-56" transform="translate(1798.445312 0)"/>
     <use xlink:href="#DejaVuSans-Bold-4c" transform="translate(1875.837891 0)"/>
     <use xlink:href="#DejaVuSans-Bold-2c" transform="translate(1939.558594 0)"/>
     <use xlink:href="#DejaVuSans-Bold-20" transform="translate(1977.546875 0)"/>
     <use xlink:href="#DejaVuSans-Bold-4c" transform="translate(2012.361328 0)"/>
     <use xlink:href="#DejaVuSans-Bold-6c" transform="translate(2076.082031 0)"/>
     <use xlink:href="#DejaVuSans-Bold-61" transform="translate(2110.359375 0)"/>
     <use xlink:href="#DejaVuSans-Bold-6d" transform="translate(2177.839844 0)"/>
     <use xlink:href="#DejaVuSans-Bold-61" transform="translate(2282.039062 0)"/>
     <use xlink:href="#DejaVuSans-Bold-2d" transform="translate(2349.519531 0)"/>
     <use xlink:href="#DejaVuSans-Bold-56" transform="translate(2383.773438 0)"/>
     <use xlink:href="#DejaVuSans-Bold-69" transform="translate(2459.416016 0)"/>
     <use xlink:href="#DejaVuSans-Bold-73" transform="translate(2493.693359 0)"/>
     <use xlink:href="#DejaVuSans-Bold-69" transform="translate(2553.214844 0)"/>
     <use xlink:href="#DejaVuSans-Bold-6f" transform="translate(2587.492188 0)"/>
     <use xlink:href="#DejaVuSans-Bold-6e" transform="translate(2656.193359 0)"/>
     <use xlink:href="#DejaVuSans-Bold-29" transform="translate(2727.384766 0)"/>
    </g>
   </g>
   <g id="text_15">
    <!-- Universal vision models -->
    <g transform="translate(909.287162 513.531469) scale(0.09 -0.09)">
     <defs>
      <path id="DejaVuSans-Oblique-55" d="M 991 4666 
L 1625 4666 
L 1075 1831 
Q 1041 1641 1027 1517 
Q 1013 1394 1013 1300 
Q 1013 869 1253 645 
Q 1494 422 1959 422 
Q 2563 422 2898 753 
Q 3234 1084 3378 1831 
L 3928 4666 
L 4563 4666 
L 4000 1753 
Q 3816 809 3300 359 
Q 2784 -91 1888 -91 
Q 1188 -91 780 261 
Q 372 613 372 1216 
Q 372 1325 387 1461 
Q 403 1597 434 1753 
L 991 4666 
z
" transform="scale(0.015625)"/>
      <path id="DejaVuSans-Oblique-76" d="M 459 3500 
L 1069 3500 
L 1581 525 
L 3256 3500 
L 3866 3500 
L 1875 0 
L 1100 0 
L 459 3500 
z
" transform="scale(0.015625)"/>
     </defs>
     <use xlink:href="#DejaVuSans-Oblique-55"/>
     <use xlink:href="#DejaVuSans-Oblique-6e" transform="translate(73.193359 0)"/>
     <use xlink:href="#DejaVuSans-Oblique-69" transform="translate(136.572266 0)"/>
     <use xlink:href="#DejaVuSans-Oblique-76" transform="translate(164.355469 0)"/>
     <use xlink:href="#DejaVuSans-Oblique-65" transform="translate(223.535156 0)"/>
     <use xlink:href="#DejaVuSans-Oblique-72" transform="translate(285.058594 0)"/>
     <use xlink:href="#DejaVuSans-Oblique-73" transform="translate(326.171875 0)"/>
     <use xlink:href="#DejaVuSans-Oblique-61" transform="translate(378.271484 0)"/>
     <use xlink:href="#DejaVuSans-Oblique-6c" transform="translate(439.550781 0)"/>
     <use xlink:href="#DejaVuSans-Oblique-20" transform="translate(467.333984 0)"/>
     <use xlink:href="#DejaVuSans-Oblique-76" transform="translate(499.121094 0)"/>
     <use xlink:href="#DejaVuSans-Oblique-69" transform="translate(558.300781 0)"/>
     <use xlink:href="#DejaVuSans-Oblique-73" transform="translate(586.083984 0)"/>
     <use xlink:href="#DejaVuSans-Oblique-69" transform="translate(638.183594 0)"/>
     <use xlink:href="#DejaVuSans-Oblique-6f" transform="translate(665.966797 0)"/>
     <use xlink:href="#DejaVuSans-Oblique-6e" transform="translate(727.148438 0)"/>
     <use xlink:href="#DejaVuSans-Oblique-20" transform="translate(790.527344 0)"/>
     <use xlink:href="#DejaVuSans-Oblique-6d" transform="translate(822.314453 0)"/>
     <use xlink:href="#DejaVuSans-Oblique-6f" transform="translate(919.726562 0)"/>
     <use xlink:href="#DejaVuSans-Oblique-64" transform="translate(980.908203 0)"/>
     <use xlink:href="#DejaVuSans-Oblique-65" transform="translate(1044.384766 0)"/>
     <use xlink:href="#DejaVuSans-Oblique-6c" transform="translate(1105.908203 0)"/>
     <use xlink:href="#DejaVuSans-Oblique-73" transform="translate(1133.691406 0)"/>
    </g>
    <!-- for any document type -->
    <g transform="translate(911.13849 523.6095) scale(0.09 -0.09)">
     <use xlink:href="#DejaVuSans-Oblique-66"/>
     <use xlink:href="#DejaVuSans-Oblique-6f" transform="translate(35.205078 0)"/>
     <use xlink:href="#DejaVuSans-Oblique-72" transform="translate(96.386719 0)"/>
     <use xlink:href="#DejaVuSans-Oblique-20" transform="translate(137.5 0)"/>
     <use xlink:href="#DejaVuSans-Oblique-61" transform="translate(169.287109 0)"/>
     <use xlink:href="#DejaVuSans-Oblique-6e" transform="translate(230.566406 0)"/>
     <use xlink:href="#DejaVuSans-Oblique-79" transform="translate(293.945312 0)"/>
     <use xlink:href="#DejaVuSans-Oblique-20" transform="translate(353.125 0)"/>
     <use xlink:href="#DejaVuSans-Oblique-64" transform="translate(384.912109 0)"/>
     <use xlink:href="#DejaVuSans-Oblique-6f" transform="translate(448.388672 0)"/>
     <use xlink:href="#DejaVuSans-Oblique-63" transform="translate(509.570312 0)"/>
     <use xlink:href="#DejaVuSans-Oblique-75" transform="translate(564.550781 0)"/>
     <use xlink:href="#DejaVuSans-Oblique-6d" transform="translate(627.929688 0)"/>
     <use xlink:href="#DejaVuSans-Oblique-65" transform="translate(725.341797 0)"/>
     <use xlink:href="#DejaVuSans-Oblique-6e" transform="translate(786.865234 0)"/>
     <use xlink:href="#DejaVuSans-Oblique-74" transform="translate(850.244141 0)"/>
     <use xlink:href="#DejaVuSans-Oblique-20" transform="translate(889.453125 0)"/>
     <use xlink:href="#DejaVuSans-Oblique-74" transform="translate(921.240234 0)"/>
     <use xlink:href="#DejaVuSans-Oblique-79" transform="translate(960.449219 0)"/>
     <use xlink:href="#DejaVuSans-Oblique-70" transform="translate(1019.628906 0)"/>
     <use xlink:href="#DejaVuSans-Oblique-65" transform="translate(1083.105469 0)"/>
    </g>
   </g>
   <g id="text_16">
    <!-- 2010 -->
    <g transform="translate(64.554403 627.216772) rotate(-45) scale(0.09 -0.09)">
     <defs>
      <path id="DejaVuSans-32" d="M 1228 531 
L 3431 531 
L 3431 0 
L 469 0 
L 469 531 
Q 828 903 1448 1529 
Q 2069 2156 2228 2338 
Q 2531 2678 2651 2914 
Q 2772 3150 2772 3378 
Q 2772 3750 2511 3984 
Q 2250 4219 1831 4219 
Q 1534 4219 1204 4116 
Q 875 4013 500 3803 
L 500 4441 
Q 881 4594 1212 4672 
Q 1544 4750 1819 4750 
Q 2544 4750 2975 4387 
Q 3406 4025 3406 3419 
Q 3406 3131 3298 2873 
Q 3191 2616 2906 2266 
Q 2828 2175 2409 1742 
Q 1991 1309 1228 531 
z
" transform="scale(0.015625)"/>
      <path id="DejaVuSans-30" d="M 2034 4250 
Q 1547 4250 1301 3770 
Q 1056 3291 1056 2328 
Q 1056 1369 1301 889 
Q 1547 409 2034 409 
Q 2525 409 2770 889 
Q 3016 1369 3016 2328 
Q 3016 3291 2770 3770 
Q 2525 4250 2034 4250 
z
M 2034 4750 
Q 2819 4750 3233 4129 
Q 3647 3509 3647 2328 
Q 3647 1150 3233 529 
Q 2819 -91 2034 -91 
Q 1250 -91 836 529 
Q 422 1150 422 2328 
Q 422 3509 836 4129 
Q 1250 4750 2034 4750 
z
" transform="scale(0.015625)"/>
      <path id="DejaVuSans-31" d="M 794 531 
L 1825 531 
L 1825 4091 
L 703 3866 
L 703 4441 
L 1819 4666 
L 2450 4666 
L 2450 531 
L 3481 531 
L 3481 0 
L 794 0 
L 794 531 
z
" transform="scale(0.015625)"/>
     </defs>
     <use xlink:href="#DejaVuSans-32"/>
     <use xlink:href="#DejaVuSans-30" transform="translate(63.623047 0)"/>
     <use xlink:href="#DejaVuSans-31" transform="translate(127.246094 0)"/>
     <use xlink:href="#DejaVuSans-30" transform="translate(190.869141 0)"/>
    </g>
   </g>
   <g id="text_17">
    <!-- 2012 -->
    <g transform="translate(191.947379 627.216772) rotate(-45) scale(0.09 -0.09)">
     <use xlink:href="#DejaVuSans-32"/>
     <use xlink:href="#DejaVuSans-30" transform="translate(63.623047 0)"/>
     <use xlink:href="#DejaVuSans-31" transform="translate(127.246094 0)"/>
     <use xlink:href="#DejaVuSans-32" transform="translate(190.869141 0)"/>
    </g>
   </g>
   <g id="text_18">
    <!-- 2014 -->
    <g transform="translate(319.340355 627.216772) rotate(-45) scale(0.09 -0.09)">
     <defs>
      <path id="DejaVuSans-34" d="M 2419 4116 
L 825 1625 
L 2419 1625 
L 2419 4116 
z
M 2253 4666 
L 3047 4666 
L 3047 1625 
L 3713 1625 
L 3713 1100 
L 3047 1100 
L 3047 0 
L 2419 0 
L 2419 1100 
L 313 1100 
L 313 1709 
L 2253 4666 
z
" transform="scale(0.015625)"/>
     </defs>
     <use xlink:href="#DejaVuSans-32"/>
     <use xlink:href="#DejaVuSans-30" transform="translate(63.623047 0)"/>
     <use xlink:href="#DejaVuSans-31" transform="translate(127.246094 0)"/>
     <use xlink:href="#DejaVuSans-34" transform="translate(190.869141 0)"/>
    </g>
   </g>
   <g id="text_19">
    <!-- 2016 -->
    <g transform="translate(446.73333 627.216772) rotate(-45) scale(0.09 -0.09)">
     <defs>
      <path id="DejaVuSans-36" d="M 2113 2584 
Q 1688 2584 1439 2293 
Q 1191 2003 1191 1497 
Q 1191 994 1439 701 
Q 1688 409 2113 409 
Q 2538 409 2786 701 
Q 3034 994 3034 1497 
Q 3034 2003 2786 2293 
Q 2538 2584 2113 2584 
z
M 3366 4563 
L 3366 3988 
Q 3128 4100 2886 4159 
Q 2644 4219 2406 4219 
Q 1781 4219 1451 3797 
Q 1122 3375 1075 2522 
Q 1259 2794 1537 2939 
Q 1816 3084 2150 3084 
Q 2853 3084 3261 2657 
Q 3669 2231 3669 1497 
Q 3669 778 3244 343 
Q 2819 -91 2113 -91 
Q 1303 -91 875 529 
Q 447 1150 447 2328 
Q 447 3434 972 4092 
Q 1497 4750 2381 4750 
Q 2619 4750 2861 4703 
Q 3103 4656 3366 4563 
z
" transform="scale(0.015625)"/>
     </defs>
     <use xlink:href="#DejaVuSans-32"/>
     <use xlink:href="#DejaVuSans-30" transform="translate(63.623047 0)"/>
     <use xlink:href="#DejaVuSans-31" transform="translate(127.246094 0)"/>
     <use xlink:href="#DejaVuSans-36" transform="translate(190.869141 0)"/>
    </g>
   </g>
   <g id="text_20">
    <!-- 2018 -->
    <g transform="translate(574.126306 627.216772) rotate(-45) scale(0.09 -0.09)">
     <defs>
      <path id="DejaVuSans-38" d="M 2034 2216 
Q 1584 2216 1326 1975 
Q 1069 1734 1069 1313 
Q 1069 891 1326 650 
Q 1584 409 2034 409 
Q 2484 409 2743 651 
Q 3003 894 3003 1313 
Q 3003 1734 2745 1975 
Q 2488 2216 2034 2216 
z
M 1403 2484 
Q 997 2584 770 2862 
Q 544 3141 544 3541 
Q 544 4100 942 4425 
Q 1341 4750 2034 4750 
Q 2731 4750 3128 4425 
Q 3525 4100 3525 3541 
Q 3525 3141 3298 2862 
Q 3072 2584 2669 2484 
Q 3125 2378 3379 2068 
Q 3634 1759 3634 1313 
Q 3634 634 3220 271 
Q 2806 -91 2034 -91 
Q 1263 -91 848 271 
Q 434 634 434 1313 
Q 434 1759 690 2068 
Q 947 2378 1403 2484 
z
M 1172 3481 
Q 1172 3119 1398 2916 
Q 1625 2713 2034 2713 
Q 2441 2713 2670 2916 
Q 2900 3119 2900 3481 
Q 2900 3844 2670 4047 
Q 2441 4250 2034 4250 
Q 1625 4250 1398 4047 
Q 1172 3844 1172 3481 
z
" transform="scale(0.015625)"/>
     </defs>
     <use xlink:href="#DejaVuSans-32"/>
     <use xlink:href="#DejaVuSans-30" transform="translate(63.623047 0)"/>
     <use xlink:href="#DejaVuSans-31" transform="translate(127.246094 0)"/>
     <use xlink:href="#DejaVuSans-38" transform="translate(190.869141 0)"/>
    </g>
   </g>
   <g id="text_21">
    <!-- 2020 -->
    <g transform="translate(701.519282 627.216772) rotate(-45) scale(0.09 -0.09)">
     <use xlink:href="#DejaVuSans-32"/>
     <use xlink:href="#DejaVuSans-30" transform="translate(63.623047 0)"/>
     <use xlink:href="#DejaVuSans-32" transform="translate(127.246094 0)"/>
     <use xlink:href="#DejaVuSans-30" transform="translate(190.869141 0)"/>
    </g>
   </g>
   <g id="text_22">
    <!-- 2022 -->
    <g transform="translate(828.912258 627.216772) rotate(-45) scale(0.09 -0.09)">
     <use xlink:href="#DejaVuSans-32"/>
     <use xlink:href="#DejaVuSans-30" transform="translate(63.623047 0)"/>
     <use xlink:href="#DejaVuSans-32" transform="translate(127.246094 0)"/>
     <use xlink:href="#DejaVuSans-32" transform="translate(190.869141 0)"/>
    </g>
   </g>
   <g id="text_23">
    <!-- 2024 -->
    <g transform="translate(956.305233 627.216772) rotate(-45) scale(0.09 -0.09)">
     <use xlink:href="#DejaVuSans-32"/>
     <use xlink:href="#DejaVuSans-30" transform="translate(63.623047 0)"/>
     <use xlink:href="#DejaVuSans-32" transform="translate(127.246094 0)"/>
     <use xlink:href="#DejaVuSans-34" transform="translate(190.869141 0)"/>
    </g>
   </g>
   <g id="text_24">
    <!-- 2026 -->
    <g transform="translate(1083.698209 627.216772) rotate(-45) scale(0.09 -0.09)">
     <use xlink:href="#DejaVuSans-32"/>
     <use xlink:href="#DejaVuSans-30" transform="translate(63.623047 0)"/>
     <use xlink:href="#DejaVuSans-32" transform="translate(127.246094 0)"/>
     <use xlink:href="#DejaVuSans-36" transform="translate(190.869141 0)"/>
    </g>
   </g>
   <g id="text_25">
    <!-- (Not ATO-specific) -->
    <g style="fill: #808080" transform="translate(485.627803 112.588) scale(0.14 -0.14)">
     <defs>
      <path id="DejaVuSans-Oblique-28" d="M 2731 4856 
Q 1903 3822 1495 2892 
Q 1088 1963 1088 1100 
Q 1088 606 1206 120 
Q 1325 -366 1563 -844 
L 1063 -844 
Q 775 -306 634 201 
Q 494 709 494 1197 
Q 494 2125 923 3036 
Q 1353 3947 2222 4856 
L 2731 4856 
z
" transform="scale(0.015625)"/>
      <path id="DejaVuSans-Oblique-4e" d="M 1081 4666 
L 1931 4666 
L 3219 666 
L 4000 4666 
L 4616 4666 
L 3706 0 
L 2853 0 
L 1569 4025 
L 788 0 
L 172 0 
L 1081 4666 
z
" transform="scale(0.015625)"/>
      <path id="DejaVuSans-Oblique-41" d="M 2356 4666 
L 3072 4666 
L 3938 0 
L 3278 0 
L 3084 1197 
L 984 1197 
L 325 0 
L -341 0 
L 2356 4666 
z
M 2584 4044 
L 1275 1722 
L 2988 1722 
L 2584 4044 
z
" transform="scale(0.015625)"/>
      <path id="DejaVuSans-Oblique-29" d="M -397 -844 
Q 434 191 840 1120 
Q 1247 2050 1247 2913 
Q 1247 3406 1130 3892 
Q 1013 4378 775 4856 
L 1275 4856 
Q 1563 4316 1703 3812 
Q 1844 3309 1844 2822 
Q 1844 1891 1411 973 
Q 978 56 116 -844 
L -397 -844 
z
" transform="scale(0.015625)"/>
     </defs>
     <use xlink:href="#DejaVuSans-Oblique-28"/>
     <use xlink:href="#DejaVuSans-Oblique-4e" transform="translate(39.013672 0)"/>
     <use xlink:href="#DejaVuSans-Oblique-6f" transform="translate(113.818359 0)"/>
     <use xlink:href="#DejaVuSans-Oblique-74" transform="translate(175 0)"/>
     <use xlink:href="#DejaVuSans-Oblique-20" transform="translate(214.208984 0)"/>
     <use xlink:href="#DejaVuSans-Oblique-41" transform="translate(245.996094 0)"/>
     <use xlink:href="#DejaVuSans-Oblique-54" transform="translate(307.154297 0)"/>
     <use xlink:href="#DejaVuSans-Oblique-4f" transform="translate(368.238281 0)"/>
     <use xlink:href="#DejaVuSans-Oblique-2d" transform="translate(446.949219 0)"/>
     <use xlink:href="#DejaVuSans-Oblique-73" transform="translate(483.033203 0)"/>
     <use xlink:href="#DejaVuSans-Oblique-70" transform="translate(535.132812 0)"/>
     <use xlink:href="#DejaVuSans-Oblique-65" transform="translate(598.609375 0)"/>
     <use xlink:href="#DejaVuSans-Oblique-63" transform="translate(660.132812 0)"/>
     <use xlink:href="#DejaVuSans-Oblique-69" transform="translate(715.113281 0)"/>
     <use xlink:href="#DejaVuSans-Oblique-66" transform="translate(742.896484 0)"/>
     <use xlink:href="#DejaVuSans-Oblique-69" transform="translate(778.101562 0)"/>
     <use xlink:href="#DejaVuSans-Oblique-63" transform="translate(805.884766 0)"/>
     <use xlink:href="#DejaVuSans-Oblique-29" transform="translate(860.865234 0)"/>
    </g>
   </g>
   <g id="text_26">
    <!-- Current Era -->
    <g style="fill: #ff0000" transform="translate(923.651068 145.200125) scale(0.12 -0.12)">
     <defs>
      <path id="DejaVuSans-Bold-45" d="M 588 4666 
L 3834 4666 
L 3834 3756 
L 1791 3756 
L 1791 2888 
L 3713 2888 
L 3713 1978 
L 1791 1978 
L 1791 909 
L 3903 909 
L 3903 0 
L 588 0 
L 588 4666 
z
" transform="scale(0.015625)"/>
     </defs>
     <use xlink:href="#DejaVuSans-Bold-43"/>
     <use xlink:href="#DejaVuSans-Bold-75" transform="translate(73.388672 0)"/>
     <use xlink:href="#DejaVuSans-Bold-72" transform="translate(144.580078 0)"/>
     <use xlink:href="#DejaVuSans-Bold-72" transform="translate(193.896484 0)"/>
     <use xlink:href="#DejaVuSans-Bold-65" transform="translate(243.212891 0)"/>
     <use xlink:href="#DejaVuSans-Bold-6e" transform="translate(311.035156 0)"/>
     <use xlink:href="#DejaVuSans-Bold-74" transform="translate(382.226562 0)"/>
     <use xlink:href="#DejaVuSans-Bold-20" transform="translate(430.029297 0)"/>
     <use xlink:href="#DejaVuSans-Bold-45" transform="translate(464.84375 0)"/>
     <use xlink:href="#DejaVuSans-Bold-72" transform="translate(533.154297 0)"/>
     <use xlink:href="#DejaVuSans-Bold-61" transform="translate(582.470703 0)"/>
    </g>
   </g>
   <g id="text_27">
    <!-- Industry-Wide Evolution of Document AI -->
    <g transform="translate(322.335772 22.396875) scale(0.2 -0.2)">
     <defs>
      <path id="DejaVuSans-Bold-57" d="M 191 4666 
L 1344 4666 
L 2150 1275 
L 2950 4666 
L 4109 4666 
L 4909 1275 
L 5716 4666 
L 6859 4666 
L 5759 0 
L 4372 0 
L 3525 3547 
L 2688 0 
L 1300 0 
L 191 4666 
z
" transform="scale(0.015625)"/>
      <path id="DejaVuSans-Bold-44" d="M 1791 3756 
L 1791 909 
L 2222 909 
Q 2959 909 3348 1275 
Q 3738 1641 3738 2338 
Q 3738 3031 3350 3393 
Q 2963 3756 2222 3756 
L 1791 3756 
z
M 588 4666 
L 1856 4666 
Q 2919 4666 3439 4514 
Q 3959 4363 4331 4000 
Q 4659 3684 4818 3271 
Q 4978 2859 4978 2338 
Q 4978 1809 4818 1395 
Q 4659 981 4331 666 
Q 3956 303 3431 151 
Q 2906 0 1856 0 
L 588 0 
L 588 4666 
z
" transform="scale(0.015625)"/>
      <path id="DejaVuSans-Bold-41" d="M 3419 850 
L 1538 850 
L 1241 0 
L 31 0 
L 1759 4666 
L 3194 4666 
L 4922 0 
L 3713 0 
L 3419 850 
z
M 1838 1716 
L 3116 1716 
L 2478 3572 
L 1838 1716 
z
" transform="scale(0.015625)"/>
     </defs>
     <use xlink:href="#DejaVuSans-Bold-49"/>
     <use xlink:href="#DejaVuSans-Bold-6e" transform="translate(37.207031 0)"/>
     <use xlink:href="#DejaVuSans-Bold-64" transform="translate(108.398438 0)"/>
     <use xlink:href="#DejaVuSans-Bold-75" transform="translate(179.980469 0)"/>
     <use xlink:href="#DejaVuSans-Bold-73" transform="translate(251.171875 0)"/>
     <use xlink:href="#DejaVuSans-Bold-74" transform="translate(310.693359 0)"/>
     <use xlink:href="#DejaVuSans-Bold-72" transform="translate(358.496094 0)"/>
     <use xlink:href="#DejaVuSans-Bold-79" transform="translate(407.8125 0)"/>
     <use xlink:href="#DejaVuSans-Bold-2d" transform="translate(472.998047 0)"/>
     <use xlink:href="#DejaVuSans-Bold-57" transform="translate(510.001953 0)"/>
     <use xlink:href="#DejaVuSans-Bold-69" transform="translate(620.304688 0)"/>
     <use xlink:href="#DejaVuSans-Bold-64" transform="translate(654.582031 0)"/>
     <use xlink:href="#DejaVuSans-Bold-65" transform="translate(726.164062 0)"/>
     <use xlink:href="#DejaVuSans-Bold-20" transform="translate(793.986328 0)"/>
     <use xlink:href="#DejaVuSans-Bold-45" transform="translate(828.800781 0)"/>
     <use xlink:href="#DejaVuSans-Bold-76" transform="translate(897.111328 0)"/>
     <use xlink:href="#DejaVuSans-Bold-6f" transform="translate(962.296875 0)"/>
     <use xlink:href="#DejaVuSans-Bold-6c" transform="translate(1030.998047 0)"/>
     <use xlink:href="#DejaVuSans-Bold-75" transform="translate(1065.275391 0)"/>
     <use xlink:href="#DejaVuSans-Bold-74" transform="translate(1136.466797 0)"/>
     <use xlink:href="#DejaVuSans-Bold-69" transform="translate(1184.269531 0)"/>
     <use xlink:href="#DejaVuSans-Bold-6f" transform="translate(1218.546875 0)"/>
     <use xlink:href="#DejaVuSans-Bold-6e" transform="translate(1287.248047 0)"/>
     <use xlink:href="#DejaVuSans-Bold-20" transform="translate(1358.439453 0)"/>
     <use xlink:href="#DejaVuSans-Bold-6f" transform="translate(1393.253906 0)"/>
     <use xlink:href="#DejaVuSans-Bold-66" transform="translate(1461.955078 0)"/>
     <use xlink:href="#DejaVuSans-Bold-20" transform="translate(1505.460938 0)"/>
     <use xlink:href="#DejaVuSans-Bold-44" transform="translate(1540.275391 0)"/>
     <use xlink:href="#DejaVuSans-Bold-6f" transform="translate(1623.283203 0)"/>
     <use xlink:href="#DejaVuSans-Bold-63" transform="translate(1691.984375 0)"/>
     <use xlink:href="#DejaVuSans-Bold-75" transform="translate(1751.261719 0)"/>
     <use xlink:href="#DejaVuSans-Bold-6d" transform="translate(1822.453125 0)"/>
     <use xlink:href="#DejaVuSans-Bold-65" transform="translate(1926.652344 0)"/>
     <use xlink:href="#DejaVuSans-Bold-6e" transform="translate(1994.474609 0)"/>
     <use xlink:href="#DejaVuSans-Bold-74" transform="translate(2065.666016 0)"/>
     <use xlink:href="#DejaVuSans-Bold-20" transform="translate(2113.46875 0)"/>
     <use xlink:href="#DejaVuSans-Bold-41" transform="translate(2148.283203 0)"/>
     <use xlink:href="#DejaVuSans-Bold-49" transform="translate(2225.675781 0)"/>
    </g>
   </g>
  </g>
 </g>
 <defs>
  <clipPath id="pd05f11936e">
   <rect x="7.2" y="42.396875" width="1082.840294" height="663.28"/>
  </clipPath>
 </defs>
</svg>
